<svg width="32" height="32" viewBox="0 0 32 32" fill="none" xmlns="http://www.w3.org/2000/svg">
<path d="M29.8429 7.58932L22.8929 11.8715L16.2286 2.98218C16.2018 2.9464 16.167 2.91736 16.127 2.89736C16.087 2.87736 16.0429 2.86694 15.9982 2.86694C15.9535 2.86694 15.9094 2.87736 15.8694 2.89736C15.8294 2.91736 15.7947 2.9464 15.7679 2.98218L9.10714 11.8715L2.15357 7.58932C1.95 7.46432 1.68571 7.63218 1.71785 7.87147L4.44642 28.6072C4.48571 28.8893 4.72857 29.1072 5.01785 29.1072H26.9857C27.2714 29.1072 27.5179 28.8929 27.5536 28.6072L30.2821 7.87147C30.3107 7.63218 30.05 7.46432 29.8429 7.58932ZM16 23.9358C13.7821 23.9358 11.9786 22.1322 11.9786 19.9143C11.9786 17.6965 13.7821 15.8929 16 15.8929C18.2179 15.8929 20.0214 17.6965 20.0214 19.9143C20.0214 22.1322 18.2179 23.9358 16 23.9358ZM16 18.1893C15.05 18.1893 14.2786 18.9608 14.2786 19.9143C14.2786 20.8643 15.05 21.6393 16 21.6393C16.95 21.6393 17.7214 20.8679 17.7214 19.9143C17.7214 18.9643 16.95 18.1893 16 18.1893Z" fill="white"/>
</svg>
