<svg width="32" height="32" viewBox="0 0 32 32" fill="none" xmlns="http://www.w3.org/2000/svg">
<g clip-path="url(#clip0_11_2485)">
<path d="M16 0C7.16429 0 0 7.16429 0 16C0 24.8357 7.16429 32 16 32C24.8357 32 32 24.8357 32 16C32 7.16429 24.8357 0 16 0ZM16.7964 23.7571L16.8036 24.8893C16.8036 25.0464 16.675 25.1786 16.5179 25.1786H15.5036C15.3464 25.1786 15.2179 25.05 15.2179 24.8929V23.7714C12.0464 23.5357 10.5536 21.7286 10.3929 19.7643C10.3786 19.5964 10.5107 19.4536 10.6786 19.4536H12.3286C12.4679 19.4536 12.5893 19.5536 12.6107 19.6893C12.7929 20.8214 13.675 21.6679 15.2571 21.8786V16.7821L14.375 16.5571C12.5071 16.1107 10.7286 14.9464 10.7286 12.5321C10.7286 9.92857 12.7071 8.52857 15.2357 8.28214V7.10357C15.2357 6.94643 15.3643 6.81786 15.5214 6.81786H16.525C16.6821 6.81786 16.8107 6.94643 16.8107 7.10357V8.27143C19.2571 8.51786 21.0929 9.94643 21.3071 12.1714C21.325 12.3393 21.1929 12.4857 21.0214 12.4857H19.4179C19.275 12.4857 19.1536 12.3786 19.1357 12.2393C18.9929 11.1964 18.1571 10.3464 16.7964 10.1607V14.9571L17.7036 15.1679C20.0179 15.7393 21.5929 16.8464 21.5929 19.325C21.5929 22.0143 19.5929 23.5143 16.7964 23.7571ZM12.95 12.3679C12.95 13.275 13.5107 13.9786 14.7179 14.4143C14.8857 14.4821 15.0536 14.5357 15.2536 14.5929V10.1643C13.9357 10.3321 12.95 11.0714 12.95 12.3679ZM17.1107 17.1964C17.0107 17.175 16.9107 17.15 16.7964 17.1179V21.8929C18.3179 21.7571 19.3679 20.9214 19.3679 19.5214C19.3679 18.425 18.8 17.7107 17.1107 17.1964Z" fill="white"/>
</g>
<defs>
<clipPath id="clip0_11_2485">
<rect width="32" height="32" fill="white"/>
</clipPath>
</defs>
</svg>
