<svg width="155" height="40" viewBox="0 0 155 40" fill="none" xmlns="http://www.w3.org/2000/svg">
<path fill-rule="evenodd" clip-rule="evenodd" d="M20 40C29.4388 40 37.3507 33.4613 39.4527 24.6667H37.389C35.3337 32.3455 28.3271 38 20 38C10.0589 38 2 29.9411 2 20C2 10.0589 10.0589 2 20 2C28.0843 2 34.9237 7.32947 37.1967 14.6667H39.281C36.947 6.21017 29.1987 0 20 0C8.9543 0 0 8.9543 0 20C0 31.0457 8.9543 40 20 40ZM28.0701 14.6667H35.795C33.571 8.07757 27.3395 3.33333 20 3.33333C10.7953 3.33333 3.33333 10.7953 3.33333 20C3.33333 29.2047 10.7953 36.6667 20 36.6667C27.5848 36.6667 33.9863 31.6001 36.0047 24.6667H28.5718C27.0736 26.8792 24.5399 28.3333 21.6667 28.3333H15.3333C13.8606 28.3333 12.6667 27.1394 12.6667 25.6667V25H8.66667C7.9303 25 7.33333 24.403 7.33333 23.6667C7.33333 22.9303 7.9303 22.3333 8.66667 22.3333H12.6667V17.6667H8.66667C7.9303 17.6667 7.33333 17.0697 7.33333 16.3333C7.33333 15.597 7.9303 15 8.66667 15H12.6667V14.3333C12.6667 12.8606 13.8606 11.6667 15.3333 11.6667H21.6667C24.2403 11.6667 26.5414 12.8333 28.0701 14.6667Z" fill="white"/>
<path d="M52.506 17.8667C51.546 17.8667 50.717 17.6578 50.0193 17.24C49.326 16.8223 48.7903 16.2378 48.4127 15.4867C48.0393 14.7356 47.8527 13.8623 47.8527 12.8667C47.8527 11.8711 48.0393 10.9978 48.4127 10.2467C48.7903 9.4956 49.326 8.91113 50.0193 8.49337C50.717 8.0756 51.546 7.8667 52.506 7.8667C53.6083 7.8667 54.5327 8.14003 55.2793 8.6867C56.0303 9.23337 56.5593 9.97337 56.866 10.9067L55.0393 11.4134C54.8617 10.8311 54.5617 10.38 54.1393 10.06C53.717 9.7356 53.1727 9.57337 52.506 9.57337C51.897 9.57337 51.3883 9.70893 50.9793 9.98003C50.575 10.2511 50.2703 10.6334 50.066 11.1267C49.8617 11.62 49.7593 12.2 49.7593 12.8667C49.7593 13.5334 49.8617 14.1134 50.066 14.6067C50.2703 15.1 50.575 15.4823 50.9793 15.7534C51.3883 16.0245 51.897 16.16 52.506 16.16C53.1727 16.16 53.717 15.9978 54.1393 15.6734C54.5617 15.3489 54.8617 14.8978 55.0393 14.32L56.866 14.8267C56.5593 15.76 56.0303 16.5 55.2793 17.0467C54.5327 17.5934 53.6083 17.8667 52.506 17.8667ZM60.0673 17.8667C59.5517 17.8667 59.114 17.7689 58.754 17.5734C58.3983 17.3734 58.1273 17.1089 57.9407 16.78C57.7583 16.4467 57.6673 16.08 57.6673 15.68C57.6673 15.3467 57.7183 15.0423 57.8207 14.7667C57.9227 14.4911 58.0873 14.2489 58.314 14.04C58.545 13.8267 58.854 13.6489 59.2407 13.5067C59.5073 13.4089 59.825 13.3223 60.194 13.2467C60.5627 13.1711 60.9807 13.1 61.4473 13.0334C61.914 12.9623 62.4273 12.8845 62.9873 12.8L62.334 13.16C62.334 12.7334 62.2317 12.42 62.0273 12.22C61.8227 12.02 61.4807 11.92 61.0007 11.92C60.734 11.92 60.456 11.9845 60.1673 12.1134C59.8783 12.2423 59.676 12.4711 59.5607 12.8L57.9207 12.28C58.1027 11.6845 58.445 11.2 58.9473 10.8267C59.4493 10.4534 60.134 10.2667 61.0007 10.2667C61.636 10.2667 62.2007 10.3645 62.694 10.56C63.1873 10.7556 63.5607 11.0934 63.814 11.5734C63.956 11.84 64.0407 12.1067 64.0673 12.3734C64.094 12.64 64.1073 12.9378 64.1073 13.2667V17.6667H62.5207V16.1867L62.7473 16.4934C62.396 16.9778 62.016 17.3289 61.6073 17.5467C61.2027 17.76 60.6893 17.8667 60.0673 17.8667ZM60.454 16.44C60.7873 16.44 61.0673 16.3823 61.294 16.2667C61.525 16.1467 61.7073 16.0111 61.8407 15.86C61.9783 15.7089 62.0717 15.5823 62.1207 15.48C62.214 15.2845 62.2673 15.0578 62.2807 14.8C62.2983 14.5378 62.3073 14.32 62.3073 14.1467L62.8407 14.28C62.3027 14.3689 61.8673 14.4445 61.534 14.5067C61.2007 14.5645 60.9317 14.6178 60.7273 14.6667C60.5227 14.7156 60.3427 14.7689 60.1873 14.8267C60.0093 14.8978 59.865 14.9756 59.754 15.06C59.6473 15.14 59.5673 15.2289 59.514 15.3267C59.465 15.4245 59.4407 15.5334 59.4407 15.6534C59.4407 15.8178 59.4807 15.96 59.5607 16.08C59.645 16.1956 59.7627 16.2845 59.914 16.3467C60.065 16.4089 60.245 16.44 60.454 16.44ZM65.7073 17.6667V7.8667H67.5207V17.6667H65.7073ZM72.3327 21.0667C71.9237 21.0667 71.535 21 71.166 20.8667C70.797 20.7378 70.466 20.5556 70.1727 20.32C69.8837 20.0889 69.6483 19.8178 69.466 19.5067L71.146 18.6934C71.2617 18.9067 71.426 19.0689 71.6393 19.18C71.857 19.2911 72.0927 19.3467 72.346 19.3467C72.617 19.3467 72.8727 19.3 73.1127 19.2067C73.3527 19.1178 73.5437 18.9823 73.686 18.8C73.8327 18.6223 73.9017 18.4 73.8927 18.1334V16.04H74.1193V10.4667H75.706V18.16C75.706 18.3378 75.697 18.5045 75.6793 18.66C75.666 18.82 75.6393 18.9778 75.5993 19.1334C75.4837 19.5734 75.2683 19.9356 74.9527 20.22C74.6417 20.5045 74.2593 20.7156 73.806 20.8534C73.3527 20.9956 72.8617 21.0667 72.3327 21.0667ZM72.1727 17.8667C71.5103 17.8667 70.9303 17.7 70.4327 17.3667C69.935 17.0334 69.546 16.58 69.266 16.0067C68.9903 15.4334 68.8527 14.7867 68.8527 14.0667C68.8527 13.3334 68.9927 12.6823 69.2727 12.1134C69.557 11.54 69.955 11.0889 70.466 10.76C70.977 10.4311 71.577 10.2667 72.266 10.2667C72.9503 10.2667 73.526 10.4334 73.9927 10.7667C74.4593 11.1 74.8127 11.5534 75.0527 12.1267C75.2927 12.7 75.4127 13.3467 75.4127 14.0667C75.4127 14.7867 75.2903 15.4334 75.046 16.0067C74.806 16.58 74.446 17.0334 73.966 17.3667C73.486 17.7 72.8883 17.8667 72.1727 17.8667ZM72.466 16.2534C72.8703 16.2534 73.1927 16.1623 73.4327 15.98C73.677 15.7978 73.8527 15.5423 73.9593 15.2134C74.066 14.8845 74.1193 14.5023 74.1193 14.0667C74.1193 13.6311 74.066 13.2489 73.9593 12.92C73.8527 12.5911 73.6817 12.3356 73.446 12.1534C73.215 11.9711 72.9103 11.88 72.5327 11.88C72.1283 11.88 71.795 11.98 71.5327 12.18C71.275 12.3756 71.0837 12.64 70.9593 12.9734C70.835 13.3023 70.7727 13.6667 70.7727 14.0667C70.7727 14.4711 70.8327 14.84 70.9527 15.1734C71.0727 15.5023 71.257 15.7645 71.506 15.96C71.755 16.1556 72.075 16.2534 72.466 16.2534ZM79.3063 17.8667C78.7907 17.8667 78.353 17.7689 77.993 17.5734C77.6373 17.3734 77.3663 17.1089 77.1797 16.78C76.9973 16.4467 76.9063 16.08 76.9063 15.68C76.9063 15.3467 76.9573 15.0423 77.0597 14.7667C77.162 14.4911 77.3263 14.2489 77.553 14.04C77.784 13.8267 78.093 13.6489 78.4797 13.5067C78.7463 13.4089 79.064 13.3223 79.433 13.2467C79.802 13.1711 80.2197 13.1 80.6863 13.0334C81.153 12.9623 81.6663 12.8845 82.2263 12.8L81.573 13.16C81.573 12.7334 81.4707 12.42 81.2663 12.22C81.062 12.02 80.7197 11.92 80.2397 11.92C79.973 11.92 79.6953 11.9845 79.4063 12.1134C79.1173 12.2423 78.9153 12.4711 78.7997 12.8L77.1597 12.28C77.342 11.6845 77.684 11.2 78.1863 10.8267C78.6887 10.4534 79.373 10.2667 80.2397 10.2667C80.8753 10.2667 81.4397 10.3645 81.933 10.56C82.4263 10.7556 82.7997 11.0934 83.053 11.5734C83.1953 11.84 83.2797 12.1067 83.3063 12.3734C83.333 12.64 83.3463 12.9378 83.3463 13.2667V17.6667H81.7597V16.1867L81.9863 16.4934C81.6353 16.9778 81.2553 17.3289 80.8463 17.5467C80.442 17.76 79.9287 17.8667 79.3063 17.8667ZM79.693 16.44C80.0263 16.44 80.3063 16.3823 80.533 16.2667C80.764 16.1467 80.9463 16.0111 81.0797 15.86C81.2173 15.7089 81.3107 15.5823 81.3597 15.48C81.453 15.2845 81.5063 15.0578 81.5197 14.8C81.5373 14.5378 81.5463 14.32 81.5463 14.1467L82.0797 14.28C81.542 14.3689 81.1063 14.4445 80.773 14.5067C80.4397 14.5645 80.1707 14.6178 79.9663 14.6667C79.762 14.7156 79.582 14.7689 79.4263 14.8267C79.2487 14.8978 79.104 14.9756 78.993 15.06C78.8863 15.14 78.8063 15.2289 78.753 15.3267C78.704 15.4245 78.6797 15.5334 78.6797 15.6534C78.6797 15.8178 78.7197 15.96 78.7997 16.08C78.884 16.1956 79.002 16.2845 79.153 16.3467C79.304 16.4089 79.484 16.44 79.693 16.44ZM84.813 17.6667V10.4667H86.413V12.2267L86.2397 12C86.333 11.7511 86.4573 11.5245 86.613 11.32C86.7687 11.1156 86.9597 10.9467 87.1863 10.8134C87.3597 10.7067 87.5487 10.6245 87.753 10.5667C87.9573 10.5045 88.1687 10.4667 88.3863 10.4534C88.604 10.4356 88.822 10.44 89.0397 10.4667V12.16C88.8397 12.0978 88.6063 12.0778 88.3397 12.1C88.0773 12.1178 87.8397 12.1778 87.6263 12.28C87.413 12.3778 87.233 12.5089 87.0863 12.6734C86.9397 12.8334 86.8287 13.0245 86.753 13.2467C86.6773 13.4645 86.6397 13.7111 86.6397 13.9867V17.6667H84.813ZM90.7007 20.8667L92.0873 17.0534L92.114 18.1734L88.9807 10.4667H90.8607L92.9673 15.92H92.5407L94.634 10.4667H96.4473L92.3807 20.8667H90.7007ZM47.7193 32.3334L50.6527 22.7334H53.3593L56.2927 32.3334H54.426L51.8127 23.8667H52.1593L49.586 32.3334H47.7193ZM49.4793 30.3334V28.64H54.546V30.3334H49.4793ZM60.7543 32.5334C60.0387 32.5334 59.441 32.3667 58.961 32.0334C58.481 31.7 58.1187 31.2467 57.8743 30.6734C57.6343 30.1 57.5143 29.4534 57.5143 28.7334C57.5143 28.0134 57.6343 27.3667 57.8743 26.7934C58.1143 26.22 58.4677 25.7667 58.9343 25.4334C59.401 25.1 59.9763 24.9334 60.661 24.9334C61.3497 24.9334 61.9497 25.0978 62.461 25.4267C62.972 25.7556 63.3677 26.2067 63.6477 26.78C63.932 27.3489 64.0743 28 64.0743 28.7334C64.0743 29.4534 63.9343 30.1 63.6543 30.6734C63.3787 31.2467 62.992 31.7 62.4943 32.0334C61.9963 32.3667 61.4163 32.5334 60.7543 32.5334ZM57.2077 35.5334V25.1334H58.8077V30.0667H59.0343V35.5334H57.2077ZM60.461 30.92C60.852 30.92 61.172 30.8223 61.421 30.6267C61.6697 30.4311 61.8543 30.1689 61.9743 29.84C62.0943 29.5067 62.1543 29.1378 62.1543 28.7334C62.1543 28.3334 62.092 27.9689 61.9677 27.64C61.843 27.3067 61.6497 27.0423 61.3877 26.8467C61.1297 26.6467 60.7987 26.5467 60.3943 26.5467C60.0163 26.5467 59.7097 26.6378 59.4743 26.82C59.243 27.0023 59.0743 27.2578 58.9677 27.5867C58.861 27.9156 58.8077 28.2978 58.8077 28.7334C58.8077 29.1689 58.861 29.5511 58.9677 29.88C59.0743 30.2089 59.2477 30.4645 59.4877 30.6467C59.732 30.8289 60.0563 30.92 60.461 30.92ZM68.808 32.5334C68.0923 32.5334 67.4947 32.3667 67.0147 32.0334C66.5347 31.7 66.1723 31.2467 65.928 30.6734C65.688 30.1 65.568 29.4534 65.568 28.7334C65.568 28.0134 65.688 27.3667 65.928 26.7934C66.168 26.22 66.5213 25.7667 66.988 25.4334C67.4547 25.1 68.03 24.9334 68.7147 24.9334C69.4033 24.9334 70.0033 25.0978 70.5147 25.4267C71.0257 25.7556 71.4213 26.2067 71.7013 26.78C71.9857 27.3489 72.128 28 72.128 28.7334C72.128 29.4534 71.988 30.1 71.708 30.6734C71.4323 31.2467 71.0457 31.7 70.548 32.0334C70.05 32.3667 69.47 32.5334 68.808 32.5334ZM65.2613 35.5334V25.1334H66.8613V30.0667H67.088V35.5334H65.2613ZM68.5147 30.92C68.9057 30.92 69.2257 30.8223 69.4747 30.6267C69.7233 30.4311 69.908 30.1689 70.028 29.84C70.148 29.5067 70.208 29.1378 70.208 28.7334C70.208 28.3334 70.1457 27.9689 70.0213 27.64C69.8967 27.3067 69.7033 27.0423 69.4413 26.8467C69.1833 26.6467 68.8523 26.5467 68.448 26.5467C68.07 26.5467 67.7633 26.6378 67.528 26.82C67.2967 27.0023 67.128 27.2578 67.0213 27.5867C66.9147 27.9156 66.8613 28.2978 66.8613 28.7334C66.8613 29.1689 66.9147 29.5511 67.0213 29.88C67.128 30.2089 67.3013 30.4645 67.5413 30.6467C67.7857 30.8289 68.11 30.92 68.5147 30.92ZM73.4613 32.3334V22.5334H75.2747V32.3334H73.4613ZM77.14 24.1334V22.5334H78.9533V24.1334H77.14ZM77.14 32.3334V25.1334H78.9533V32.3334H77.14ZM82.6853 32.5334C82.17 32.5334 81.732 32.4356 81.372 32.24C81.0167 32.04 80.7453 31.7756 80.5587 31.4467C80.3767 31.1134 80.2853 30.7467 80.2853 30.3467C80.2853 30.0134 80.3367 29.7089 80.4387 29.4334C80.541 29.1578 80.7053 28.9156 80.932 28.7067C81.1633 28.4934 81.472 28.3156 81.8587 28.1734C82.1253 28.0756 82.4433 27.9889 82.812 27.9134C83.181 27.8378 83.5987 27.7667 84.0653 27.7C84.532 27.6289 85.0453 27.5511 85.6053 27.4667L84.952 27.8267C84.952 27.4 84.85 27.0867 84.6453 26.8867C84.441 26.6867 84.0987 26.5867 83.6187 26.5867C83.352 26.5867 83.0743 26.6511 82.7853 26.78C82.4967 26.9089 82.2943 27.1378 82.1787 27.4667L80.5387 26.9467C80.721 26.3511 81.0633 25.8667 81.5653 25.4934C82.0677 25.12 82.752 24.9334 83.6187 24.9334C84.2543 24.9334 84.8187 25.0311 85.312 25.2267C85.8053 25.4223 86.1787 25.76 86.432 26.24C86.5743 26.5067 86.6587 26.7734 86.6853 27.04C86.712 27.3067 86.7253 27.6045 86.7253 27.9334V32.3334H85.1387V30.8534L85.3653 31.16C85.0143 31.6445 84.6343 31.9956 84.2253 32.2134C83.821 32.4267 83.3077 32.5334 82.6853 32.5334ZM83.072 31.1067C83.4053 31.1067 83.6853 31.0489 83.912 30.9334C84.1433 30.8134 84.3253 30.6778 84.4587 30.5267C84.5967 30.3756 84.69 30.2489 84.7387 30.1467C84.832 29.9511 84.8853 29.7245 84.8987 29.4667C84.9167 29.2045 84.9253 28.9867 84.9253 28.8134L85.4587 28.9467C84.921 29.0356 84.4853 29.1111 84.152 29.1734C83.8187 29.2311 83.55 29.2845 83.3453 29.3334C83.141 29.3823 82.961 29.4356 82.8053 29.4934C82.6277 29.5645 82.4833 29.6423 82.372 29.7267C82.2653 29.8067 82.1853 29.8956 82.132 29.9934C82.0833 30.0911 82.0587 30.2 82.0587 30.32C82.0587 30.4845 82.0987 30.6267 82.1787 30.7467C82.2633 30.8623 82.381 30.9511 82.532 31.0134C82.6833 31.0756 82.8633 31.1067 83.072 31.1067ZM93.099 32.3334V28.9334C93.099 28.7689 93.09 28.56 93.0723 28.3067C93.0543 28.0489 92.999 27.7911 92.9057 27.5334C92.8123 27.2756 92.659 27.06 92.4457 26.8867C92.2367 26.7134 91.939 26.6267 91.5523 26.6267C91.3967 26.6267 91.23 26.6511 91.0523 26.7C90.8743 26.7489 90.7077 26.8445 90.5523 26.9867C90.3967 27.1245 90.2677 27.3289 90.1657 27.6C90.0677 27.8711 90.019 28.2311 90.019 28.68L88.979 28.1867C88.979 27.6178 89.0943 27.0845 89.3257 26.5867C89.5567 26.0889 89.9033 25.6867 90.3657 25.38C90.8323 25.0734 91.419 24.92 92.1257 24.92C92.69 24.92 93.15 25.0156 93.5057 25.2067C93.861 25.3978 94.1367 25.64 94.3323 25.9334C94.5323 26.2267 94.6743 26.5334 94.759 26.8534C94.8433 27.1689 94.8943 27.4578 94.9123 27.72C94.93 27.9823 94.939 28.1734 94.939 28.2934V32.3334H93.099ZM88.179 32.3334V25.1334H89.7923V27.52H90.019V32.3334H88.179ZM99.4453 32.5334C98.6987 32.5334 98.0587 32.3667 97.5253 32.0334C96.992 31.7 96.583 31.2467 96.2987 30.6734C96.014 30.1 95.872 29.4534 95.872 28.7334C95.872 28.0045 96.0187 27.3534 96.312 26.78C96.6097 26.2067 97.0273 25.7556 97.5653 25.4267C98.103 25.0978 98.7387 24.9334 99.472 24.9334C100.321 24.9334 101.032 25.1489 101.605 25.58C102.183 26.0067 102.552 26.5911 102.712 27.3334L100.899 27.8134C100.792 27.44 100.605 27.1489 100.339 26.94C100.076 26.7311 99.7787 26.6267 99.4453 26.6267C99.063 26.6267 98.7497 26.72 98.5053 26.9067C98.2607 27.0889 98.0807 27.34 97.9653 27.66C97.8497 27.9756 97.792 28.3334 97.792 28.7334C97.792 29.36 97.9297 29.8689 98.2053 30.26C98.4853 30.6467 98.8987 30.84 99.4453 30.84C99.854 30.84 100.165 30.7467 100.379 30.56C100.592 30.3734 100.752 30.1067 100.859 29.76L102.712 30.1467C102.507 30.9111 102.121 31.5 101.552 31.9134C100.983 32.3267 100.281 32.5334 99.4453 32.5334ZM106.93 32.5334C106.192 32.5334 105.541 32.3756 104.977 32.06C104.417 31.74 103.977 31.3023 103.657 30.7467C103.341 30.1867 103.183 29.5467 103.183 28.8267C103.183 28.04 103.339 27.3556 103.65 26.7734C103.961 26.1911 104.39 25.74 104.937 25.42C105.483 25.0956 106.112 24.9334 106.823 24.9334C107.579 24.9334 108.221 25.1111 108.75 25.4667C109.279 25.8223 109.67 26.3223 109.923 26.9667C110.177 27.6111 110.266 28.3689 110.19 29.24H108.397V28.5734C108.397 27.84 108.279 27.3134 108.043 26.9934C107.812 26.6689 107.432 26.5067 106.903 26.5067C106.286 26.5067 105.83 26.6956 105.537 27.0734C105.248 27.4467 105.103 28 105.103 28.7334C105.103 29.4045 105.248 29.9245 105.537 30.2934C105.83 30.6578 106.259 30.84 106.823 30.84C107.179 30.84 107.483 30.7623 107.737 30.6067C107.99 30.4511 108.183 30.2267 108.317 29.9334L110.13 30.4534C109.859 31.1111 109.43 31.6223 108.843 31.9867C108.261 32.3511 107.623 32.5334 106.93 32.5334ZM104.543 29.24V27.8934H109.317V29.24H104.543ZM113.831 32.3334V22.7334H117.885C117.978 22.7334 118.102 22.7378 118.258 22.7467C118.418 22.7511 118.56 22.7645 118.685 22.7867C119.258 22.8756 119.727 23.0645 120.091 23.3534C120.46 23.6423 120.731 24.0067 120.905 24.4467C121.078 24.8823 121.165 25.3689 121.165 25.9067C121.165 26.7111 120.965 27.4 120.565 27.9734C120.165 28.5423 119.538 28.8934 118.685 29.0267L117.885 29.08H115.645V32.3334H113.831ZM119.245 32.3334L117.351 28.4267L119.218 28.0667L121.298 32.3334H119.245ZM115.645 27.3867H117.805C117.898 27.3867 118 27.3823 118.111 27.3734C118.222 27.3645 118.325 27.3467 118.418 27.32C118.662 27.2534 118.851 27.1423 118.985 26.9867C119.118 26.8267 119.209 26.6511 119.258 26.46C119.311 26.2645 119.338 26.08 119.338 25.9067C119.338 25.7334 119.311 25.5511 119.258 25.36C119.209 25.1645 119.118 24.9889 118.985 24.8334C118.851 24.6734 118.662 24.56 118.418 24.4934C118.325 24.4667 118.222 24.4489 118.111 24.44C118 24.4311 117.898 24.4267 117.805 24.4267H115.645V27.3867ZM125.844 32.5334C125.106 32.5334 124.455 32.3756 123.89 32.06C123.33 31.74 122.89 31.3023 122.57 30.7467C122.255 30.1867 122.097 29.5467 122.097 28.8267C122.097 28.04 122.252 27.3556 122.564 26.7734C122.875 26.1911 123.304 25.74 123.85 25.42C124.397 25.0956 125.026 24.9334 125.737 24.9334C126.492 24.9334 127.135 25.1111 127.664 25.4667C128.192 25.8223 128.584 26.3223 128.837 26.9667C129.09 27.6111 129.179 28.3689 129.104 29.24H127.31V28.5734C127.31 27.84 127.192 27.3134 126.957 26.9934C126.726 26.6689 126.346 26.5067 125.817 26.5067C125.199 26.5067 124.744 26.6956 124.45 27.0734C124.161 27.4467 124.017 28 124.017 28.7334C124.017 29.4045 124.161 29.9245 124.45 30.2934C124.744 30.6578 125.172 30.84 125.737 30.84C126.092 30.84 126.397 30.7623 126.65 30.6067C126.904 30.4511 127.097 30.2267 127.23 29.9334L129.044 30.4534C128.772 31.1111 128.344 31.6223 127.757 31.9867C127.175 32.3511 126.537 32.5334 125.844 32.5334ZM123.457 29.24V27.8934H128.23V29.24H123.457ZM133.68 32.5334C132.965 32.5334 132.367 32.3667 131.887 32.0334C131.407 31.7 131.045 31.2467 130.8 30.6734C130.56 30.1 130.44 29.4534 130.44 28.7334C130.44 28.0134 130.56 27.3667 130.8 26.7934C131.04 26.22 131.394 25.7667 131.86 25.4334C132.327 25.1 132.902 24.9334 133.587 24.9334C134.276 24.9334 134.876 25.0978 135.387 25.4267C135.898 25.7556 136.294 26.2067 136.574 26.78C136.858 27.3489 137 28 137 28.7334C137 29.4534 136.86 30.1 136.58 30.6734C136.305 31.2467 135.918 31.7 135.42 32.0334C134.922 32.3667 134.342 32.5334 133.68 32.5334ZM130.134 35.5334V25.1334H131.734V30.0667H131.96V35.5334H130.134ZM133.387 30.92C133.778 30.92 134.098 30.8223 134.347 30.6267C134.596 30.4311 134.78 30.1689 134.9 29.84C135.02 29.5067 135.08 29.1378 135.08 28.7334C135.08 28.3334 135.018 27.9689 134.894 27.64C134.769 27.3067 134.576 27.0423 134.314 26.8467C134.056 26.6467 133.725 26.5467 133.32 26.5467C132.942 26.5467 132.636 26.6378 132.4 26.82C132.169 27.0023 132 27.2578 131.894 27.5867C131.787 27.9156 131.734 28.2978 131.734 28.7334C131.734 29.1689 131.787 29.5511 131.894 29.88C132 30.2089 132.174 30.4645 132.414 30.6467C132.658 30.8289 132.982 30.92 133.387 30.92ZM140.201 32.5334C139.685 32.5334 139.247 32.4356 138.887 32.24C138.532 32.04 138.261 31.7756 138.074 31.4467C137.892 31.1134 137.801 30.7467 137.801 30.3467C137.801 30.0134 137.852 29.7089 137.954 29.4334C138.056 29.1578 138.221 28.9156 138.447 28.7067C138.678 28.4934 138.987 28.3156 139.374 28.1734C139.641 28.0756 139.958 27.9889 140.327 27.9134C140.696 27.8378 141.114 27.7667 141.581 27.7C142.047 27.6289 142.561 27.5511 143.121 27.4667L142.467 27.8267C142.467 27.4 142.365 27.0867 142.161 26.8867C141.956 26.6867 141.614 26.5867 141.134 26.5867C140.867 26.5867 140.589 26.6511 140.301 26.78C140.012 26.9089 139.809 27.1378 139.694 27.4667L138.054 26.9467C138.236 26.3511 138.578 25.8667 139.081 25.4934C139.583 25.12 140.267 24.9334 141.134 24.9334C141.769 24.9334 142.334 25.0311 142.827 25.2267C143.321 25.4223 143.694 25.76 143.947 26.24C144.089 26.5067 144.174 26.7734 144.201 27.04C144.227 27.3067 144.241 27.6045 144.241 27.9334V32.3334H142.654V30.8534L142.881 31.16C142.529 31.6445 142.149 31.9956 141.741 32.2134C141.336 32.4267 140.823 32.5334 140.201 32.5334ZM140.587 31.1067C140.921 31.1067 141.201 31.0489 141.427 30.9334C141.658 30.8134 141.841 30.6778 141.974 30.5267C142.112 30.3756 142.205 30.2489 142.254 30.1467C142.347 29.9511 142.401 29.7245 142.414 29.4667C142.432 29.2045 142.441 28.9867 142.441 28.8134L142.974 28.9467C142.436 29.0356 142.001 29.1111 141.667 29.1734C141.334 29.2311 141.065 29.2845 140.861 29.3334C140.656 29.3823 140.476 29.4356 140.321 29.4934C140.143 29.5645 139.998 29.6423 139.887 29.7267C139.781 29.8067 139.701 29.8956 139.647 29.9934C139.598 30.0911 139.574 30.2 139.574 30.32C139.574 30.4845 139.614 30.6267 139.694 30.7467C139.778 30.8623 139.896 30.9511 140.047 31.0134C140.198 31.0756 140.378 31.1067 140.587 31.1067ZM145.841 24.1334V22.5334H147.654V24.1334H145.841ZM145.841 32.3334V25.1334H147.654V32.3334H145.841ZM149.386 32.3334V25.1334H150.986V26.8934L150.813 26.6667C150.906 26.4178 151.03 26.1911 151.186 25.9867C151.342 25.7823 151.533 25.6134 151.759 25.48C151.933 25.3734 152.122 25.2911 152.326 25.2334C152.53 25.1711 152.742 25.1334 152.959 25.12C153.177 25.1023 153.395 25.1067 153.613 25.1334V26.8267C153.413 26.7645 153.179 26.7445 152.913 26.7667C152.65 26.7845 152.413 26.8445 152.199 26.9467C151.986 27.0445 151.806 27.1756 151.659 27.34C151.513 27.5 151.402 27.6911 151.326 27.9134C151.25 28.1311 151.213 28.3778 151.213 28.6534V32.3334H149.386Z" fill="white"/>
</svg>
