<svg width="247" height="64" viewBox="0 0 247 64" fill="none" xmlns="http://www.w3.org/2000/svg">
<g clip-path="url(#clip0_5_2458)">
<path fill-rule="evenodd" clip-rule="evenodd" d="M32.0333 64C47.1355 64 59.7944 53.5381 63.1576 39.4667H59.8557C56.5672 51.7527 45.3567 60.8 32.0333 60.8C16.1275 60.8 3.23333 47.9058 3.23333 32C3.23333 16.0942 16.1275 3.2 32.0333 3.2C44.9682 3.2 55.9112 11.7271 59.548 23.4667H62.8829C59.1485 9.93627 46.7513 0 32.0333 0C14.3602 0 0.0333252 14.3269 0.0333252 32C0.0333252 49.6731 14.3602 64 32.0333 64ZM44.9454 23.4667H57.3053C53.7469 12.9241 43.7766 5.33333 32.0333 5.33333C17.3058 5.33333 5.36666 17.2724 5.36666 32C5.36666 46.7276 17.3058 58.6667 32.0333 58.6667C44.1691 58.6667 54.4115 50.5601 57.6408 39.4667H45.7482C43.351 43.0067 39.2972 45.3333 34.7 45.3333H24.5667C22.2102 45.3333 20.3 43.4231 20.3 41.0667V40H13.9C12.7218 40 11.7667 39.0449 11.7667 37.8667C11.7667 36.6885 12.7218 35.7333 13.9 35.7333H20.3V28.2667H13.9C12.7218 28.2667 11.7667 27.3115 11.7667 26.1333C11.7667 24.9551 12.7218 24 13.9 24H20.3V22.9333C20.3 20.5769 22.2102 18.6667 24.5667 18.6667H34.7C38.8178 18.6667 42.4996 20.5333 44.9454 23.4667Z" fill="#E63946"/>
<path d="M84.0429 28.5867C82.5069 28.5867 81.1805 28.2524 80.0643 27.584C78.9549 26.9156 78.0979 25.9804 77.4936 24.7787C76.8963 23.5769 76.5976 22.1796 76.5976 20.5867C76.5976 18.9938 76.8963 17.5964 77.4936 16.3947C78.0979 15.1929 78.9549 14.2578 80.0643 13.5893C81.1805 12.9209 82.5069 12.5867 84.0429 12.5867C85.8067 12.5867 87.2856 13.024 88.4803 13.8987C89.6819 14.7733 90.5283 15.9573 91.0189 17.4507L88.0963 18.2613C87.812 17.3298 87.332 16.608 86.6563 16.096C85.9805 15.5769 85.1096 15.3173 84.0429 15.3173C83.0685 15.3173 82.2547 15.5342 81.6003 15.968C80.9533 16.4018 80.4659 17.0133 80.1389 17.8027C79.812 18.592 79.6483 19.52 79.6483 20.5867C79.6483 21.6533 79.812 22.5813 80.1389 23.3707C80.4659 24.16 80.9533 24.7716 81.6003 25.2053C82.2547 25.6391 83.0685 25.856 84.0429 25.856C85.1096 25.856 85.9805 25.5964 86.6563 25.0773C87.332 24.5582 87.812 23.8364 88.0963 22.912L91.0189 23.7227C90.5283 25.216 89.6819 26.4 88.4803 27.2747C87.2856 28.1493 85.8067 28.5867 84.0429 28.5867ZM96.1411 28.5867C95.316 28.5867 94.6157 28.4302 94.0397 28.1173C93.4707 27.7973 93.0371 27.3742 92.7384 26.848C92.4467 26.3147 92.3011 25.728 92.3011 25.088C92.3011 24.5547 92.3827 24.0676 92.5464 23.6267C92.7096 23.1858 92.9731 22.7982 93.3357 22.464C93.7053 22.1227 94.1997 21.8382 94.8184 21.6107C95.2451 21.4542 95.7533 21.3156 96.3437 21.1947C96.9336 21.0738 97.6024 20.96 98.3491 20.8533C99.0957 20.7396 99.9171 20.6151 100.813 20.48L99.7677 21.056C99.7677 20.3733 99.604 19.872 99.2771 19.552C98.9496 19.232 98.4024 19.072 97.6344 19.072C97.2077 19.072 96.7629 19.1751 96.3011 19.3813C95.8387 19.5876 95.5149 19.9538 95.3304 20.48L92.7064 19.648C92.9976 18.6951 93.5453 17.92 94.3491 17.3227C95.1523 16.7253 96.2477 16.4267 97.6344 16.4267C98.6509 16.4267 99.5544 16.5831 100.344 16.896C101.133 17.2089 101.73 17.7493 102.136 18.5173C102.363 18.944 102.498 19.3707 102.541 19.7973C102.584 20.224 102.605 20.7004 102.605 21.2267V28.2667H100.066V25.8987L100.429 26.3893C99.8669 27.1644 99.2589 27.7262 98.6051 28.0747C97.9576 28.416 97.1363 28.5867 96.1411 28.5867ZM96.7597 26.304C97.2931 26.304 97.7411 26.2116 98.1037 26.0267C98.4733 25.8347 98.7651 25.6178 98.9784 25.376C99.1987 25.1342 99.348 24.9316 99.4264 24.768C99.5757 24.4551 99.6611 24.0924 99.6824 23.68C99.7107 23.2604 99.7251 22.912 99.7251 22.6347L100.578 22.848C99.7176 22.9902 99.0211 23.1111 98.4877 23.2107C97.9544 23.3031 97.524 23.3884 97.1971 23.4667C96.8696 23.5449 96.5816 23.6302 96.3331 23.7227C96.0483 23.8364 95.8173 23.9609 95.6397 24.096C95.4691 24.224 95.3411 24.3662 95.2557 24.5227C95.1773 24.6791 95.1384 24.8533 95.1384 25.0453C95.1384 25.3084 95.2024 25.536 95.3304 25.728C95.4653 25.9129 95.6536 26.0551 95.8957 26.1547C96.1373 26.2542 96.4253 26.304 96.7597 26.304ZM105.165 28.2667V12.5867H108.066V28.2667H105.165ZM115.766 33.7067C115.111 33.7067 114.489 33.6 113.899 33.3867C113.309 33.1804 112.779 32.8889 112.31 32.512C111.847 32.1422 111.471 31.7084 111.179 31.2107L113.867 29.9093C114.052 30.2507 114.315 30.5102 114.656 30.688C115.005 30.8658 115.382 30.9547 115.787 30.9547C116.221 30.9547 116.63 30.88 117.014 30.7307C117.398 30.5884 117.703 30.3716 117.931 30.08C118.166 29.7956 118.276 29.44 118.262 29.0133V25.664H118.624V16.7467H121.163V29.056C121.163 29.3404 121.149 29.6071 121.12 29.856C121.099 30.112 121.056 30.3644 120.992 30.6133C120.807 31.3173 120.463 31.8969 119.958 32.352C119.46 32.8071 118.848 33.1449 118.123 33.3653C117.398 33.5929 116.612 33.7067 115.766 33.7067ZM115.51 28.5867C114.45 28.5867 113.522 28.32 112.726 27.7867C111.929 27.2533 111.307 26.528 110.859 25.6107C110.418 24.6933 110.198 23.6587 110.198 22.5067C110.198 21.3333 110.422 20.2916 110.87 19.3813C111.325 18.464 111.961 17.7422 112.779 17.216C113.597 16.6898 114.557 16.4267 115.659 16.4267C116.754 16.4267 117.675 16.6933 118.422 17.2267C119.168 17.76 119.734 18.4853 120.118 19.4027C120.502 20.32 120.694 21.3547 120.694 22.5067C120.694 23.6587 120.498 24.6933 120.107 25.6107C119.723 26.528 119.147 27.2533 118.379 27.7867C117.611 28.32 116.655 28.5867 115.51 28.5867ZM115.979 26.0053C116.626 26.0053 117.142 25.8596 117.526 25.568C117.917 25.2764 118.198 24.8676 118.368 24.3413C118.539 23.8151 118.624 23.2036 118.624 22.5067C118.624 21.8098 118.539 21.1982 118.368 20.672C118.198 20.1458 117.924 19.7369 117.547 19.4453C117.177 19.1538 116.69 19.008 116.086 19.008C115.439 19.008 114.905 19.168 114.486 19.488C114.073 19.8009 113.767 20.224 113.568 20.7573C113.369 21.2836 113.27 21.8667 113.27 22.5067C113.27 23.1538 113.366 23.744 113.558 24.2773C113.75 24.8036 114.045 25.2231 114.443 25.536C114.841 25.8489 115.353 26.0053 115.979 26.0053ZM126.923 28.5867C126.098 28.5867 125.398 28.4302 124.822 28.1173C124.253 27.7973 123.819 27.3742 123.521 26.848C123.229 26.3147 123.083 25.728 123.083 25.088C123.083 24.5547 123.165 24.0676 123.329 23.6267C123.493 23.1858 123.755 22.7982 124.118 22.464C124.488 22.1227 124.982 21.8382 125.601 21.6107C126.027 21.4542 126.536 21.3156 127.126 21.1947C127.717 21.0738 128.385 20.96 129.131 20.8533C129.878 20.7396 130.699 20.6151 131.595 20.48L130.55 21.056C130.55 20.3733 130.386 19.872 130.059 19.552C129.733 19.232 129.185 19.072 128.417 19.072C127.99 19.072 127.546 19.1751 127.083 19.3813C126.621 19.5876 126.298 19.9538 126.113 20.48L123.489 19.648C123.781 18.6951 124.328 17.92 125.131 17.3227C125.935 16.7253 127.03 16.4267 128.417 16.4267C129.434 16.4267 130.337 16.5831 131.126 16.896C131.915 17.2089 132.513 17.7493 132.918 18.5173C133.146 18.944 133.281 19.3707 133.323 19.7973C133.366 20.224 133.387 20.7004 133.387 21.2267V28.2667H130.849V25.8987L131.211 26.3893C130.65 27.1644 130.042 27.7262 129.387 28.0747C128.741 28.416 127.919 28.5867 126.923 28.5867ZM127.542 26.304C128.075 26.304 128.523 26.2116 128.886 26.0267C129.256 25.8347 129.547 25.6178 129.761 25.376C129.981 25.1342 130.13 24.9316 130.209 24.768C130.358 24.4551 130.443 24.0924 130.465 23.68C130.493 23.2604 130.507 22.912 130.507 22.6347L131.361 22.848C130.501 22.9902 129.803 23.1111 129.27 23.2107C128.737 23.3031 128.306 23.3884 127.979 23.4667C127.653 23.5449 127.365 23.6302 127.115 23.7227C126.831 23.8364 126.6 23.9609 126.422 24.096C126.251 24.224 126.123 24.3662 126.038 24.5227C125.96 24.6791 125.921 24.8533 125.921 25.0453C125.921 25.3084 125.985 25.536 126.113 25.728C126.248 25.9129 126.437 26.0551 126.678 26.1547C126.92 26.2542 127.208 26.304 127.542 26.304ZM135.734 28.2667V16.7467H138.294V19.5627L138.017 19.2C138.166 18.8018 138.365 18.4391 138.614 18.112C138.863 17.7849 139.169 17.5147 139.531 17.3013C139.809 17.1307 140.111 16.9991 140.438 16.9067C140.765 16.8071 141.103 16.7467 141.451 16.7253C141.8 16.6969 142.149 16.704 142.497 16.7467V19.456C142.177 19.3564 141.803 19.3244 141.377 19.36C140.957 19.3884 140.577 19.4844 140.235 19.648C139.894 19.8044 139.606 20.0142 139.371 20.2773C139.137 20.5333 138.959 20.8391 138.838 21.1947C138.717 21.5431 138.657 21.9378 138.657 22.3787V28.2667H135.734ZM145.154 33.3867L147.373 27.2853L147.416 29.0773L142.402 16.7467H145.41L148.781 25.472H148.098L151.448 16.7467H154.349L147.842 33.3867H145.154ZM76.3843 51.7333L81.0776 36.3733H85.4083L90.1016 51.7333H87.1149L82.9336 38.1867H83.4883L79.3709 51.7333H76.3843ZM79.2003 48.5333V45.824H87.3069V48.5333H79.2003ZM97.2403 52.0533C96.0952 52.0533 95.1389 51.7867 94.3709 51.2533C93.6029 50.72 93.0232 49.9947 92.6323 49.0773C92.2483 48.16 92.0563 47.1253 92.0563 45.9733C92.0563 44.8213 92.2483 43.7867 92.6323 42.8693C93.0163 41.952 93.5816 41.2267 94.3283 40.6933C95.0749 40.16 95.9955 39.8933 97.0909 39.8933C98.1928 39.8933 99.1528 40.1564 99.9709 40.6827C100.789 41.2089 101.422 41.9307 101.87 42.848C102.325 43.7582 102.552 44.8 102.552 45.9733C102.552 47.1253 102.328 48.16 101.88 49.0773C101.439 49.9947 100.821 50.72 100.024 51.2533C99.2275 51.7867 98.2995 52.0533 97.2403 52.0533ZM91.5656 56.8533V40.2133H94.1256V48.1067H94.4883V56.8533H91.5656ZM96.7709 49.472C97.3965 49.472 97.9085 49.3156 98.3069 49.0027C98.7048 48.6898 99.0003 48.2702 99.1923 47.744C99.3843 47.2107 99.4803 46.6204 99.4803 45.9733C99.4803 45.3333 99.3805 44.7502 99.1816 44.224C98.9821 43.6907 98.6728 43.2676 98.2536 42.9547C97.8408 42.6347 97.3112 42.4747 96.6643 42.4747C96.0595 42.4747 95.5688 42.6204 95.1923 42.912C94.8221 43.2036 94.5523 43.6124 94.3816 44.1387C94.2109 44.6649 94.1256 45.2764 94.1256 45.9733C94.1256 46.6702 94.2109 47.2818 94.3816 47.808C94.5523 48.3342 94.8296 48.7431 95.2136 49.0347C95.6045 49.3262 96.1235 49.472 96.7709 49.472ZM110.126 52.0533C108.981 52.0533 108.025 51.7867 107.257 51.2533C106.489 50.72 105.909 49.9947 105.518 49.0773C105.134 48.16 104.942 47.1253 104.942 45.9733C104.942 44.8213 105.134 43.7867 105.518 42.8693C105.902 41.952 106.467 41.2267 107.214 40.6933C107.961 40.16 108.881 39.8933 109.977 39.8933C111.079 39.8933 112.039 40.1564 112.857 40.6827C113.674 41.2089 114.307 41.9307 114.755 42.848C115.21 43.7582 115.438 44.8 115.438 45.9733C115.438 47.1253 115.214 48.16 114.766 49.0773C114.325 49.9947 113.706 50.72 112.91 51.2533C112.113 51.7867 111.185 52.0533 110.126 52.0533ZM104.451 56.8533V40.2133H107.011V48.1067H107.374V56.8533H104.451ZM109.657 49.472C110.282 49.472 110.794 49.3156 111.193 49.0027C111.591 48.6898 111.886 48.2702 112.078 47.744C112.27 47.2107 112.366 46.6204 112.366 45.9733C112.366 45.3333 112.266 44.7502 112.067 44.224C111.868 43.6907 111.559 43.2676 111.139 42.9547C110.727 42.6347 110.197 42.4747 109.55 42.4747C108.945 42.4747 108.455 42.6204 108.078 42.912C107.708 43.2036 107.438 43.6124 107.267 44.1387C107.097 44.6649 107.011 45.2764 107.011 45.9733C107.011 46.6702 107.097 47.2818 107.267 47.808C107.438 48.3342 107.715 48.7431 108.099 49.0347C108.49 49.3262 109.009 49.472 109.657 49.472ZM117.571 51.7333V36.0533H120.473V51.7333H117.571ZM123.457 38.6133V36.0533H126.359V38.6133H123.457ZM123.457 51.7333V40.2133H126.359V51.7333H123.457ZM132.33 52.0533C131.505 52.0533 130.805 51.8969 130.229 51.584C129.66 51.264 129.226 50.8409 128.927 50.3147C128.636 49.7813 128.49 49.1947 128.49 48.5547C128.49 48.0213 128.572 47.5342 128.735 47.0933C128.899 46.6524 129.162 46.2649 129.525 45.9307C129.895 45.5893 130.389 45.3049 131.007 45.0773C131.434 44.9209 131.943 44.7822 132.533 44.6613C133.123 44.5404 133.791 44.4267 134.538 44.32C135.285 44.2062 136.106 44.0818 137.002 43.9467L135.957 44.5227C135.957 43.84 135.793 43.3387 135.466 43.0187C135.139 42.6987 134.591 42.5387 133.823 42.5387C133.397 42.5387 132.952 42.6418 132.49 42.848C132.028 43.0542 131.704 43.4204 131.519 43.9467L128.895 43.1147C129.187 42.1618 129.735 41.3867 130.538 40.7893C131.342 40.192 132.437 39.8933 133.823 39.8933C134.84 39.8933 135.743 40.0498 136.533 40.3627C137.322 40.6756 137.919 41.216 138.325 41.984C138.552 42.4107 138.687 42.8373 138.73 43.264C138.773 43.6907 138.794 44.1671 138.794 44.6933V51.7333H136.255V49.3653L136.618 49.856C136.056 50.6311 135.448 51.1929 134.794 51.5413C134.147 51.8827 133.326 52.0533 132.33 52.0533ZM132.949 49.7707C133.482 49.7707 133.93 49.6782 134.293 49.4933C134.663 49.3013 134.954 49.0844 135.167 48.8427C135.388 48.6009 135.537 48.3982 135.615 48.2347C135.765 47.9218 135.85 47.5591 135.871 47.1467C135.9 46.7271 135.914 46.3787 135.914 46.1013L136.767 46.3147C135.907 46.4569 135.21 46.5778 134.677 46.6773C134.143 46.7698 133.713 46.8551 133.386 46.9333C133.059 47.0116 132.771 47.0969 132.522 47.1893C132.238 47.3031 132.007 47.4276 131.829 47.5627C131.658 47.6907 131.53 47.8329 131.445 47.9893C131.367 48.1458 131.327 48.32 131.327 48.512C131.327 48.7751 131.391 49.0027 131.519 49.1947C131.655 49.3796 131.843 49.5218 132.085 49.6213C132.327 49.7209 132.615 49.7707 132.949 49.7707ZM148.992 51.7333V46.2933C148.992 46.0302 148.977 45.696 148.949 45.2907C148.92 44.8782 148.832 44.4658 148.682 44.0533C148.533 43.6409 148.288 43.296 147.946 43.0187C147.612 42.7413 147.136 42.6027 146.517 42.6027C146.268 42.6027 146.001 42.6418 145.717 42.72C145.432 42.7982 145.166 42.9511 144.917 43.1787C144.668 43.3991 144.462 43.7262 144.298 44.16C144.142 44.5938 144.064 45.1698 144.064 45.888L142.4 45.0987C142.4 44.1884 142.584 43.3351 142.954 42.5387C143.324 41.7422 143.879 41.0987 144.618 40.608C145.365 40.1173 146.304 39.872 147.434 39.872C148.337 39.872 149.073 40.0249 149.642 40.3307C150.211 40.6364 150.652 41.024 150.965 41.4933C151.285 41.9627 151.512 42.4533 151.648 42.9653C151.783 43.4702 151.864 43.9324 151.893 44.352C151.921 44.7716 151.936 45.0773 151.936 45.2693V51.7333H148.992ZM141.12 51.7333V40.2133H143.701V44.032H144.064V51.7333H141.12ZM159.146 52.0533C157.951 52.0533 156.927 51.7867 156.074 51.2533C155.221 50.72 154.566 49.9947 154.111 49.0773C153.656 48.16 153.429 47.1253 153.429 45.9733C153.429 44.8071 153.663 43.7653 154.133 42.848C154.609 41.9307 155.277 41.2089 156.138 40.6827C156.998 40.1564 158.015 39.8933 159.189 39.8933C160.546 39.8933 161.685 40.2382 162.602 40.928C163.526 41.6107 164.117 42.5458 164.373 43.7333L161.471 44.5013C161.301 43.904 161.002 43.4382 160.575 43.104C160.155 42.7698 159.679 42.6027 159.146 42.6027C158.534 42.6027 158.033 42.752 157.642 43.0507C157.25 43.3422 156.962 43.744 156.778 44.256C156.593 44.7609 156.501 45.3333 156.501 45.9733C156.501 46.976 156.721 47.7902 157.162 48.416C157.61 49.0347 158.271 49.344 159.146 49.344C159.8 49.344 160.298 49.1947 160.639 48.896C160.981 48.5973 161.237 48.1707 161.407 47.616L164.373 48.2347C164.045 49.4578 163.426 50.4 162.517 51.0613C161.606 51.7227 160.482 52.0533 159.146 52.0533ZM171.121 52.0533C169.941 52.0533 168.899 51.8009 167.996 51.296C167.1 50.784 166.396 50.0836 165.884 49.1947C165.379 48.2987 165.127 47.2747 165.127 46.1227C165.127 44.864 165.376 43.7689 165.873 42.8373C166.371 41.9058 167.057 41.184 167.932 40.672C168.807 40.1529 169.813 39.8933 170.951 39.8933C172.16 39.8933 173.187 40.1778 174.033 40.7467C174.88 41.3156 175.505 42.1156 175.911 43.1467C176.316 44.1778 176.458 45.3902 176.337 46.784H173.468V45.7173C173.468 44.544 173.28 43.7013 172.903 43.1893C172.533 42.6702 171.925 42.4107 171.079 42.4107C170.09 42.4107 169.361 42.7129 168.892 43.3173C168.43 43.9147 168.199 44.8 168.199 45.9733C168.199 47.0471 168.43 47.8791 168.892 48.4693C169.361 49.0524 170.048 49.344 170.951 49.344C171.52 49.344 172.007 49.2196 172.412 48.9707C172.817 48.7218 173.127 48.3627 173.34 47.8933L176.241 48.7253C175.808 49.7778 175.121 50.5956 174.183 51.1787C173.251 51.7618 172.231 52.0533 171.121 52.0533ZM167.303 46.784V44.6293H174.94V46.784H167.303ZM182.163 51.7333V36.3733H188.649C188.798 36.3733 188.997 36.3804 189.246 36.3947C189.502 36.4018 189.73 36.4231 189.929 36.4587C190.846 36.6009 191.597 36.9031 192.179 37.3653C192.77 37.8276 193.203 38.4107 193.481 39.1147C193.758 39.8116 193.897 40.5902 193.897 41.4507C193.897 42.7378 193.577 43.84 192.937 44.7573C192.297 45.6676 191.294 46.2293 189.929 46.4427L188.649 46.528H185.065V51.7333H182.163ZM190.825 51.7333L187.795 45.4827L190.782 44.9067L194.11 51.7333H190.825ZM185.065 43.8187H188.521C188.67 43.8187 188.834 43.8116 189.011 43.7973C189.189 43.7831 189.353 43.7547 189.502 43.712C189.893 43.6053 190.195 43.4276 190.409 43.1787C190.622 42.9227 190.768 42.6418 190.846 42.336C190.931 42.0231 190.974 41.728 190.974 41.4507C190.974 41.1733 190.931 40.8818 190.846 40.576C190.768 40.2631 190.622 39.9822 190.409 39.7333C190.195 39.4773 189.893 39.296 189.502 39.1893C189.353 39.1467 189.189 39.1182 189.011 39.104C188.834 39.0898 188.67 39.0827 188.521 39.0827H185.065V43.8187ZM201.383 52.0533C200.202 52.0533 199.161 51.8009 198.258 51.296C197.362 50.784 196.658 50.0836 196.146 49.1947C195.641 48.2987 195.389 47.2747 195.389 46.1227C195.389 44.864 195.637 43.7689 196.135 42.8373C196.633 41.9058 197.319 41.184 198.194 40.672C199.069 40.1529 200.074 39.8933 201.213 39.8933C202.421 39.8933 203.449 40.1778 204.295 40.7467C205.141 41.3156 205.767 42.1156 206.173 43.1467C206.578 44.1778 206.72 45.3902 206.599 46.784H203.73V45.7173C203.73 44.544 203.541 43.7013 203.165 43.1893C202.794 42.6702 202.186 42.4107 201.341 42.4107C200.352 42.4107 199.623 42.7129 199.154 43.3173C198.691 43.9147 198.461 44.8 198.461 45.9733C198.461 47.0471 198.691 47.8791 199.154 48.4693C199.623 49.0524 200.309 49.344 201.213 49.344C201.781 49.344 202.269 49.2196 202.674 48.9707C203.079 48.7218 203.389 48.3627 203.602 47.8933L206.503 48.7253C206.069 49.7778 205.383 50.5956 204.445 51.1787C203.513 51.7618 202.493 52.0533 201.383 52.0533ZM197.565 46.784V44.6293H205.202V46.784H197.565ZM213.922 52.0533C212.777 52.0533 211.821 51.7867 211.053 51.2533C210.285 50.72 209.705 49.9947 209.314 49.0773C208.93 48.16 208.738 47.1253 208.738 45.9733C208.738 44.8213 208.93 43.7867 209.314 42.8693C209.698 41.952 210.263 41.2267 211.01 40.6933C211.757 40.16 212.677 39.8933 213.773 39.8933C214.874 39.8933 215.834 40.1564 216.653 40.6827C217.47 41.2089 218.103 41.9307 218.551 42.848C219.006 43.7582 219.234 44.8 219.234 45.9733C219.234 47.1253 219.01 48.16 218.562 49.0773C218.121 49.9947 217.502 50.72 216.706 51.2533C215.909 51.7867 214.981 52.0533 213.922 52.0533ZM208.247 56.8533V40.2133H210.807V48.1067H211.17V56.8533H208.247ZM213.453 49.472C214.078 49.472 214.59 49.3156 214.989 49.0027C215.386 48.6898 215.682 48.2702 215.874 47.744C216.066 47.2107 216.162 46.6204 216.162 45.9733C216.162 45.3333 216.062 44.7502 215.863 44.224C215.664 43.6907 215.354 43.2676 214.935 42.9547C214.522 42.6347 213.993 42.4747 213.346 42.4747C212.741 42.4747 212.25 42.6204 211.874 42.912C211.504 43.2036 211.234 43.6124 211.063 44.1387C210.893 44.6649 210.807 45.2764 210.807 45.9733C210.807 46.6702 210.893 47.2818 211.063 47.808C211.234 48.3342 211.511 48.7431 211.895 49.0347C212.286 49.3262 212.805 49.472 213.453 49.472ZM224.354 52.0533C223.529 52.0533 222.829 51.8969 222.253 51.584C221.684 51.264 221.25 50.8409 220.952 50.3147C220.66 49.7813 220.514 49.1947 220.514 48.5547C220.514 48.0213 220.596 47.5342 220.76 47.0933C220.923 46.6524 221.186 46.2649 221.549 45.9307C221.919 45.5893 222.413 45.3049 223.032 45.0773C223.458 44.9209 223.967 44.7822 224.557 44.6613C225.147 44.5404 225.816 44.4267 226.562 44.32C227.309 44.2062 228.13 44.0818 229.026 43.9467L227.981 44.5227C227.981 43.84 227.817 43.3387 227.49 43.0187C227.163 42.6987 226.616 42.5387 225.848 42.5387C225.421 42.5387 224.976 42.6418 224.514 42.848C224.052 43.0542 223.728 43.4204 223.544 43.9467L220.92 43.1147C221.211 42.1618 221.759 41.3867 222.562 40.7893C223.366 40.192 224.461 39.8933 225.848 39.8933C226.864 39.8933 227.768 40.0498 228.557 40.3627C229.346 40.6756 229.944 41.216 230.349 41.984C230.576 42.4107 230.712 42.8373 230.754 43.264C230.797 43.6907 230.818 44.1671 230.818 44.6933V51.7333H228.28V49.3653L228.642 49.856C228.08 50.6311 227.472 51.1929 226.818 51.5413C226.171 51.8827 225.35 52.0533 224.354 52.0533ZM224.973 49.7707C225.506 49.7707 225.954 49.6782 226.317 49.4933C226.687 49.3013 226.978 49.0844 227.192 48.8427C227.412 48.6009 227.561 48.3982 227.64 48.2347C227.789 47.9218 227.874 47.5591 227.896 47.1467C227.924 46.7271 227.938 46.3787 227.938 46.1013L228.792 46.3147C227.931 46.4569 227.234 46.5778 226.701 46.6773C226.168 46.7698 225.737 46.8551 225.41 46.9333C225.083 47.0116 224.795 47.0969 224.546 47.1893C224.262 47.3031 224.031 47.4276 223.853 47.5627C223.682 47.6907 223.554 47.8329 223.469 47.9893C223.391 48.1458 223.352 48.32 223.352 48.512C223.352 48.7751 223.416 49.0027 223.544 49.1947C223.679 49.3796 223.867 49.5218 224.109 49.6213C224.351 49.7209 224.639 49.7707 224.973 49.7707ZM233.378 38.6133V36.0533H236.28V38.6133H233.378ZM233.378 51.7333V40.2133H236.28V51.7333H233.378ZM239.051 51.7333V40.2133H241.611V43.0293L241.334 42.6667C241.483 42.2684 241.682 41.9058 241.931 41.5787C242.18 41.2516 242.486 40.9813 242.848 40.768C243.126 40.5973 243.428 40.4658 243.755 40.3733C244.082 40.2738 244.42 40.2133 244.768 40.192C245.117 40.1636 245.465 40.1707 245.814 40.2133V42.9227C245.494 42.8231 245.12 42.7911 244.694 42.8267C244.274 42.8551 243.894 42.9511 243.552 43.1147C243.211 43.2711 242.923 43.4809 242.688 43.744C242.454 44 242.276 44.3058 242.155 44.6613C242.034 45.0098 241.974 45.4044 241.974 45.8453V51.7333H239.051Z" fill="#151517"/>
</g>
<defs>
<clipPath id="clip0_5_2458">
<rect width="246.933" height="64" fill="white" transform="translate(0.0333252)"/>
</clipPath>
</defs>
</svg>
