<svg width="32" height="32" viewBox="0 0 32 32" fill="none" xmlns="http://www.w3.org/2000/svg">
<path d="M16 9.39289C14.9321 9.39289 13.9286 9.80718 13.1714 10.5643C12.7994 10.9353 12.5043 11.3762 12.3033 11.8616C12.1023 12.3471 11.9992 12.8675 12 13.3929C12 14.4607 12.4179 15.4643 13.1714 16.2215C13.5424 16.5935 13.9833 16.8886 14.4688 17.0896C14.9542 17.2906 15.4746 17.3937 16 17.3929C17.0679 17.3929 18.0714 16.975 18.8286 16.2215C19.5857 15.4643 20 14.4607 20 13.3929C20 12.325 19.5857 11.3215 18.8286 10.5643C18.0714 9.80718 17.0679 9.39289 16 9.39289ZM28.2357 8.03932C27.5633 6.48889 26.5939 5.08511 25.3821 3.90718C24.1664 2.71861 22.7332 1.77524 21.1607 1.12861C19.525 0.450035 17.7893 0.107178 16 0.107178C14.2107 0.107178 12.475 0.450035 10.8393 1.12503C9.25714 1.77861 7.83929 2.71432 6.61786 3.90361C5.40687 5.0822 4.43756 6.48582 3.76429 8.03575C3.06786 9.64289 2.71429 11.35 2.71429 13.1072C2.71429 15.6286 3.31786 18.1393 4.50357 20.5608C5.45714 22.5072 6.78929 24.4036 8.46786 26.2072C11.3357 29.2857 14.3429 31.1679 15.1964 31.6715C15.4387 31.8146 15.715 31.8898 15.9964 31.8893C16.275 31.8893 16.55 31.8179 16.7964 31.6715C17.65 31.1679 20.6571 29.2857 23.525 26.2072C25.2036 24.4072 26.5357 22.5072 27.4893 20.5608C28.6821 18.1429 29.2857 15.6357 29.2857 13.1107C29.2857 11.3536 28.9321 9.64646 28.2357 8.03932ZM16 19.6786C12.5286 19.6786 9.71429 16.8643 9.71429 13.3929C9.71429 9.92146 12.5286 7.10718 16 7.10718C19.4714 7.10718 22.2857 9.92146 22.2857 13.3929C22.2857 16.8643 19.4714 19.6786 16 19.6786Z" fill="white"/>
</svg>
