<svg width="186" height="48" viewBox="0 0 186 48" fill="none" xmlns="http://www.w3.org/2000/svg">
<path fill-rule="evenodd" clip-rule="evenodd" d="M24 48C35.3266 48 44.8208 40.1536 47.3432 29.6H44.8668C42.4004 38.8146 33.9926 45.6 24 45.6C12.0706 45.6 2.4 35.9294 2.4 24C2.4 12.0706 12.0706 2.4 24 2.4C33.7011 2.4 41.9084 8.79536 44.636 17.6H47.1372C44.3364 7.4522 35.0385 0 24 0C10.7452 0 0 10.7452 0 24C0 37.2548 10.7452 48 24 48ZM33.6841 17.6H42.954C40.2852 9.69308 32.8074 4 24 4C12.9543 4 4 12.9543 4 24C4 35.0457 12.9543 44 24 44C33.1018 44 40.7836 37.9201 43.2056 29.6H34.2861C32.4883 32.255 29.4479 34 26 34H18.4C16.6327 34 15.2 32.5673 15.2 30.8V30H10.4C9.51636 30 8.8 29.2836 8.8 28.4C8.8 27.5164 9.51636 26.8 10.4 26.8H15.2V21.2H10.4C9.51636 21.2 8.8 20.4836 8.8 19.6C8.8 18.7164 9.51636 18 10.4 18H15.2V17.2C15.2 15.4327 16.6327 14 18.4 14H26C29.0884 14 31.8497 15.4 33.6841 17.6Z" fill="#E63946"/>
<path d="M63.0072 21.44C61.8552 21.44 60.8604 21.1893 60.0232 20.688C59.1912 20.1867 58.5484 19.4853 58.0952 18.584C57.6472 17.6827 57.4232 16.6347 57.4232 15.44C57.4232 14.2453 57.6472 13.1973 58.0952 12.296C58.5484 11.3947 59.1912 10.6933 60.0232 10.192C60.8604 9.69068 61.8552 9.44 63.0072 9.44C64.33 9.44 65.4392 9.768 66.3352 10.424C67.2364 11.08 67.8712 11.968 68.2392 13.088L66.0472 13.696C65.834 12.9973 65.474 12.456 64.9672 12.072C64.4604 11.6827 63.8072 11.488 63.0072 11.488C62.2764 11.488 61.666 11.6507 61.1752 11.976C60.69 12.3013 60.3244 12.76 60.0792 13.352C59.834 13.944 59.7112 14.64 59.7112 15.44C59.7112 16.24 59.834 16.936 60.0792 17.528C60.3244 18.12 60.69 18.5787 61.1752 18.904C61.666 19.2293 62.2764 19.392 63.0072 19.392C63.8072 19.392 64.4604 19.1973 64.9672 18.808C65.474 18.4187 65.834 17.8773 66.0472 17.184L68.2392 17.792C67.8712 18.912 67.2364 19.8 66.3352 20.456C65.4392 21.112 64.33 21.44 63.0072 21.44ZM72.0808 21.44C71.462 21.44 70.9368 21.3227 70.5048 21.088C70.078 20.848 69.7528 20.5307 69.5288 20.136C69.31 19.736 69.2008 19.296 69.2008 18.816C69.2008 18.416 69.262 18.0507 69.3848 17.72C69.5072 17.3893 69.7048 17.0987 69.9768 16.848C70.254 16.592 70.6248 16.3787 71.0888 16.208C71.4088 16.0907 71.79 15.9867 72.2328 15.896C72.6752 15.8053 73.1768 15.72 73.7368 15.64C74.2968 15.5547 74.9128 15.4613 75.5848 15.36L74.8008 15.792C74.8008 15.28 74.678 14.904 74.4328 14.664C74.1872 14.424 73.7768 14.304 73.2008 14.304C72.8808 14.304 72.5472 14.3813 72.2008 14.536C71.854 14.6907 71.6112 14.9653 71.4728 15.36L69.5048 14.736C69.7232 14.0213 70.134 13.44 70.7368 12.992C71.3392 12.544 72.1608 12.32 73.2008 12.32C73.9632 12.32 74.6408 12.4373 75.2328 12.672C75.8248 12.9067 76.2728 13.312 76.5768 13.888C76.7472 14.208 76.8488 14.528 76.8808 14.848C76.9128 15.168 76.9288 15.5253 76.9288 15.92V21.2H75.0248V19.424L75.2968 19.792C74.8752 20.3733 74.4192 20.7947 73.9288 21.056C73.4432 21.312 72.8272 21.44 72.0808 21.44ZM72.5448 19.728C72.9448 19.728 73.2808 19.6587 73.5528 19.52C73.83 19.376 74.0488 19.2133 74.2088 19.032C74.374 18.8507 74.486 18.6987 74.5448 18.576C74.6568 18.3413 74.7208 18.0693 74.7368 17.76C74.758 17.4453 74.7688 17.184 74.7688 16.976L75.4088 17.136C74.7632 17.2427 74.2408 17.3333 73.8408 17.408C73.4408 17.4773 73.118 17.5413 72.8728 17.6C72.6272 17.6587 72.4112 17.7227 72.2248 17.792C72.0112 17.8773 71.838 17.9707 71.7048 18.072C71.5768 18.168 71.4808 18.2747 71.4168 18.392C71.358 18.5093 71.3288 18.64 71.3288 18.784C71.3288 18.9813 71.3768 19.152 71.4728 19.296C71.574 19.4347 71.7152 19.5413 71.8968 19.616C72.078 19.6907 72.294 19.728 72.5448 19.728ZM78.8488 21.2V9.44H81.0248V21.2H78.8488ZM86.7992 25.28C86.3084 25.28 85.842 25.2 85.3992 25.04C84.9564 24.8853 84.5592 24.6667 84.2072 24.384C83.8604 24.1067 83.578 23.7813 83.3592 23.408L85.3752 22.432C85.514 22.688 85.7112 22.8827 85.9672 23.016C86.2284 23.1493 86.5112 23.216 86.8152 23.216C87.1404 23.216 87.4472 23.16 87.7352 23.048C88.0232 22.9413 88.2524 22.7787 88.4232 22.56C88.5992 22.3467 88.682 22.08 88.6712 21.76V19.248H88.9432V12.56H90.8472V21.792C90.8472 22.0053 90.8364 22.2053 90.8152 22.392C90.7992 22.584 90.7672 22.7733 90.7192 22.96C90.5804 23.488 90.322 23.9227 89.9432 24.264C89.57 24.6053 89.1112 24.8587 88.5672 25.024C88.0232 25.1947 87.434 25.28 86.7992 25.28ZM86.6072 21.44C85.8124 21.44 85.1164 21.24 84.5192 20.84C83.922 20.44 83.4552 19.896 83.1192 19.208C82.7884 18.52 82.6232 17.744 82.6232 16.88C82.6232 16 82.7912 15.2187 83.1272 14.536C83.4684 13.848 83.946 13.3067 84.5592 12.912C85.1724 12.5173 85.8924 12.32 86.7192 12.32C87.5404 12.32 88.2312 12.52 88.7912 12.92C89.3512 13.32 89.7752 13.864 90.0632 14.552C90.3512 15.24 90.4952 16.016 90.4952 16.88C90.4952 17.744 90.3484 18.52 90.0552 19.208C89.7672 19.896 89.3352 20.44 88.7592 20.84C88.1832 21.24 87.466 21.44 86.6072 21.44ZM86.9592 19.504C87.4444 19.504 87.8312 19.3947 88.1192 19.176C88.4124 18.9573 88.6232 18.6507 88.7512 18.256C88.8792 17.8613 88.9432 17.4027 88.9432 16.88C88.9432 16.3573 88.8792 15.8987 88.7512 15.504C88.6232 15.1093 88.418 14.8027 88.1352 14.584C87.858 14.3653 87.4924 14.256 87.0392 14.256C86.554 14.256 86.154 14.376 85.8392 14.616C85.53 14.8507 85.3004 15.168 85.1512 15.568C85.002 15.9627 84.9272 16.4 84.9272 16.88C84.9272 17.3653 84.9992 17.808 85.1432 18.208C85.2872 18.6027 85.5084 18.9173 85.8072 19.152C86.106 19.3867 86.49 19.504 86.9592 19.504ZM95.1676 21.44C94.5488 21.44 94.0236 21.3227 93.5916 21.088C93.1648 20.848 92.8396 20.5307 92.6156 20.136C92.3968 19.736 92.2876 19.296 92.2876 18.816C92.2876 18.416 92.3488 18.0507 92.4716 17.72C92.5944 17.3893 92.7916 17.0987 93.0636 16.848C93.3408 16.592 93.7116 16.3787 94.1756 16.208C94.4956 16.0907 94.8768 15.9867 95.3196 15.896C95.7624 15.8053 96.2636 15.72 96.8236 15.64C97.3836 15.5547 97.9996 15.4613 98.6716 15.36L97.8876 15.792C97.8876 15.28 97.7648 14.904 97.5196 14.664C97.2744 14.424 96.8636 14.304 96.2876 14.304C95.9676 14.304 95.6344 14.3813 95.2876 14.536C94.9408 14.6907 94.6984 14.9653 94.5596 15.36L92.5916 14.736C92.8104 14.0213 93.2208 13.44 93.8236 12.992C94.4264 12.544 95.2476 12.32 96.2876 12.32C97.0504 12.32 97.7276 12.4373 98.3196 12.672C98.9116 12.9067 99.3596 13.312 99.6636 13.888C99.8344 14.208 99.9356 14.528 99.9676 14.848C99.9996 15.168 100.016 15.5253 100.016 15.92V21.2H98.1116V19.424L98.3836 19.792C97.9624 20.3733 97.5064 20.7947 97.0156 21.056C96.5304 21.312 95.9144 21.44 95.1676 21.44ZM95.6316 19.728C96.0316 19.728 96.3676 19.6587 96.6396 19.52C96.9168 19.376 97.1356 19.2133 97.2956 19.032C97.4608 18.8507 97.5728 18.6987 97.6316 18.576C97.7436 18.3413 97.8076 18.0693 97.8236 17.76C97.8448 17.4453 97.8556 17.184 97.8556 16.976L98.4956 17.136C97.8504 17.2427 97.3276 17.3333 96.9276 17.408C96.5276 17.4773 96.2048 17.5413 95.9596 17.6C95.7144 17.6587 95.4984 17.7227 95.3116 17.792C95.0984 17.8773 94.9248 17.9707 94.7916 18.072C94.6636 18.168 94.5676 18.2747 94.5036 18.392C94.4448 18.5093 94.4156 18.64 94.4156 18.784C94.4156 18.9813 94.4636 19.152 94.5596 19.296C94.6608 19.4347 94.8024 19.5413 94.9836 19.616C95.1648 19.6907 95.3808 19.728 95.6316 19.728ZM101.776 21.2V12.56H103.696V14.672L103.488 14.4C103.6 14.1013 103.749 13.8293 103.936 13.584C104.122 13.3387 104.352 13.136 104.624 12.976C104.832 12.848 105.058 12.7493 105.304 12.68C105.549 12.6053 105.802 12.56 106.064 12.544C106.325 12.5227 106.586 12.528 106.848 12.56V14.592C106.608 14.5173 106.328 14.4933 106.008 14.52C105.693 14.5413 105.408 14.6133 105.152 14.736C104.896 14.8533 104.68 15.0107 104.504 15.208C104.328 15.4 104.194 15.6293 104.104 15.896C104.013 16.1573 103.968 16.4533 103.968 16.784V21.2H101.776ZM108.841 25.04L110.505 20.464L110.537 21.808L106.777 12.56H109.033L111.561 19.104H111.049L113.561 12.56H115.737L110.857 25.04H108.841ZM57.2632 38.8L60.7832 27.28H64.0312L67.5512 38.8H65.3112L62.1752 28.64H62.5912L59.5032 38.8H57.2632ZM59.3752 36.4V34.368H65.4552V36.4H59.3752ZM72.9052 39.04C72.0464 39.04 71.3292 38.84 70.7532 38.44C70.1772 38.04 69.7424 37.496 69.4492 36.808C69.1612 36.12 69.0172 35.344 69.0172 34.48C69.0172 33.616 69.1612 32.84 69.4492 32.152C69.7372 31.464 70.1612 30.92 70.7212 30.52C71.2812 30.12 71.9716 29.92 72.7932 29.92C73.6196 29.92 74.3396 30.1173 74.9532 30.512C75.5664 30.9067 76.0412 31.448 76.3772 32.136C76.7184 32.8187 76.8892 33.6 76.8892 34.48C76.8892 35.344 76.7212 36.12 76.3852 36.808C76.0544 37.496 75.5904 38.04 74.9932 38.44C74.3956 38.84 73.6996 39.04 72.9052 39.04ZM68.6492 42.64V30.16H70.5692V36.08H70.8412V42.64H68.6492ZM72.5532 37.104C73.0224 37.104 73.4064 36.9867 73.7052 36.752C74.0036 36.5173 74.2252 36.2027 74.3692 35.808C74.5132 35.408 74.5852 34.9653 74.5852 34.48C74.5852 34 74.5104 33.5627 74.3612 33.168C74.2116 32.768 73.9796 32.4507 73.6652 32.216C73.3556 31.976 72.9584 31.856 72.4732 31.856C72.0196 31.856 71.6516 31.9653 71.3692 32.184C71.0916 32.4027 70.8892 32.7093 70.7612 33.104C70.6332 33.4987 70.5692 33.9573 70.5692 34.48C70.5692 35.0027 70.6332 35.4613 70.7612 35.856C70.8892 36.2507 71.0972 36.5573 71.3852 36.776C71.6784 36.9947 72.0676 37.104 72.5532 37.104ZM82.5696 39.04C81.7108 39.04 80.9936 38.84 80.4176 38.44C79.8416 38.04 79.4068 37.496 79.1136 36.808C78.8256 36.12 78.6816 35.344 78.6816 34.48C78.6816 33.616 78.8256 32.84 79.1136 32.152C79.4016 31.464 79.8256 30.92 80.3856 30.52C80.9456 30.12 81.636 29.92 82.4576 29.92C83.284 29.92 84.004 30.1173 84.6176 30.512C85.2308 30.9067 85.7056 31.448 86.0416 32.136C86.3828 32.8187 86.5536 33.6 86.5536 34.48C86.5536 35.344 86.3856 36.12 86.0496 36.808C85.7188 37.496 85.2548 38.04 84.6576 38.44C84.06 38.84 83.364 39.04 82.5696 39.04ZM78.3136 42.64V30.16H80.2336V36.08H80.5056V42.64H78.3136ZM82.2176 37.104C82.6868 37.104 83.0708 36.9867 83.3696 36.752C83.668 36.5173 83.8896 36.2027 84.0336 35.808C84.1776 35.408 84.2496 34.9653 84.2496 34.48C84.2496 34 84.1748 33.5627 84.0256 33.168C83.876 32.768 83.644 32.4507 83.3296 32.216C83.02 31.976 82.6228 31.856 82.1376 31.856C81.684 31.856 81.316 31.9653 81.0336 32.184C80.756 32.4027 80.5536 32.7093 80.4256 33.104C80.2976 33.4987 80.2336 33.9573 80.2336 34.48C80.2336 35.0027 80.2976 35.4613 80.4256 35.856C80.5536 36.2507 80.7616 36.5573 81.0496 36.776C81.3428 36.9947 81.732 37.104 82.2176 37.104ZM88.1536 38.8V27.04H90.3296V38.8H88.1536ZM92.568 28.96V27.04H94.744V28.96H92.568ZM92.568 38.8V30.16H94.744V38.8H92.568ZM99.2224 39.04C98.604 39.04 98.0784 38.9227 97.6464 38.688C97.22 38.448 96.8944 38.1307 96.6704 37.736C96.452 37.336 96.3424 36.896 96.3424 36.416C96.3424 36.016 96.404 35.6507 96.5264 35.32C96.6492 34.9893 96.8464 34.6987 97.1184 34.448C97.396 34.192 97.7664 33.9787 98.2304 33.808C98.5504 33.6907 98.932 33.5867 99.3744 33.496C99.8172 33.4053 100.318 33.32 100.878 33.24C101.438 33.1547 102.054 33.0613 102.726 32.96L101.942 33.392C101.942 32.88 101.82 32.504 101.574 32.264C101.329 32.024 100.918 31.904 100.342 31.904C100.022 31.904 99.6892 31.9813 99.3424 32.136C98.996 32.2907 98.7532 32.5653 98.6144 32.96L96.6464 32.336C96.8652 31.6213 97.276 31.04 97.8784 30.592C98.4812 30.144 99.3024 29.92 100.342 29.92C101.105 29.92 101.782 30.0373 102.374 30.272C102.966 30.5067 103.414 30.912 103.718 31.488C103.889 31.808 103.99 32.128 104.022 32.448C104.054 32.768 104.07 33.1253 104.07 33.52V38.8H102.166V37.024L102.438 37.392C102.017 37.9733 101.561 38.3947 101.07 38.656C100.585 38.912 99.9692 39.04 99.2224 39.04ZM99.6864 37.328C100.086 37.328 100.422 37.2587 100.694 37.12C100.972 36.976 101.19 36.8133 101.35 36.632C101.516 36.4507 101.628 36.2987 101.686 36.176C101.798 35.9413 101.862 35.6693 101.878 35.36C101.9 35.0453 101.91 34.784 101.91 34.576L102.55 34.736C101.905 34.8427 101.382 34.9333 100.982 35.008C100.582 35.0773 100.26 35.1413 100.014 35.2C99.7692 35.2587 99.5532 35.3227 99.3664 35.392C99.1532 35.4773 98.98 35.5707 98.8464 35.672C98.7184 35.768 98.6224 35.8747 98.5584 35.992C98.5 36.1093 98.4704 36.24 98.4704 36.384C98.4704 36.5813 98.5184 36.752 98.6144 36.896C98.716 37.0347 98.8572 37.1413 99.0384 37.216C99.22 37.2907 99.436 37.328 99.6864 37.328ZM111.719 38.8V34.72C111.719 34.5227 111.708 34.272 111.687 33.968C111.665 33.6587 111.599 33.3493 111.487 33.04C111.375 32.7307 111.191 32.472 110.935 32.264C110.684 32.056 110.327 31.952 109.863 31.952C109.676 31.952 109.476 31.9813 109.263 32.04C109.049 32.0987 108.849 32.2133 108.663 32.384C108.476 32.5493 108.321 32.7947 108.199 33.12C108.081 33.4453 108.023 33.8773 108.023 34.416L106.775 33.824C106.775 33.1413 106.913 32.5013 107.191 31.904C107.468 31.3067 107.884 30.824 108.439 30.456C108.999 30.088 109.703 29.904 110.551 29.904C111.228 29.904 111.78 30.0187 112.207 30.248C112.633 30.4773 112.964 30.768 113.199 31.12C113.439 31.472 113.609 31.84 113.711 32.224C113.812 32.6027 113.873 32.9493 113.895 33.264C113.916 33.5787 113.927 33.808 113.927 33.952V38.8H111.719ZM105.815 38.8V30.16H107.751V33.024H108.023V38.8H105.815ZM119.334 39.04C118.438 39.04 117.67 38.84 117.03 38.44C116.39 38.04 115.9 37.496 115.558 36.808C115.217 36.12 115.046 35.344 115.046 34.48C115.046 33.6053 115.222 32.824 115.574 32.136C115.932 31.448 116.433 30.9067 117.078 30.512C117.724 30.1173 118.486 29.92 119.366 29.92C120.385 29.92 121.238 30.1787 121.926 30.696C122.62 31.208 123.062 31.9093 123.254 32.8L121.078 33.376C120.95 32.928 120.726 32.5787 120.406 32.328C120.092 32.0773 119.734 31.952 119.334 31.952C118.876 31.952 118.5 32.064 118.206 32.288C117.913 32.5067 117.697 32.808 117.558 33.192C117.42 33.5707 117.35 34 117.35 34.48C117.35 35.232 117.516 35.8427 117.846 36.312C118.182 36.776 118.678 37.008 119.334 37.008C119.825 37.008 120.198 36.896 120.454 36.672C120.71 36.448 120.902 36.128 121.03 35.712L123.254 36.176C123.009 37.0933 122.545 37.8 121.862 38.296C121.18 38.792 120.337 39.04 119.334 39.04ZM128.316 39.04C127.431 39.04 126.649 38.8507 125.972 38.472C125.3 38.088 124.772 37.5627 124.388 36.896C124.009 36.224 123.82 35.456 123.82 34.592C123.82 33.648 124.007 32.8267 124.38 32.128C124.753 31.4293 125.268 30.888 125.924 30.504C126.58 30.1147 127.335 29.92 128.188 29.92C129.095 29.92 129.865 30.1333 130.5 30.56C131.135 30.9867 131.604 31.5867 131.908 32.36C132.212 33.1333 132.319 34.0427 132.228 35.088H130.076V34.288C130.076 33.408 129.935 32.776 129.652 32.392C129.375 32.0027 128.919 31.808 128.284 31.808C127.543 31.808 126.996 32.0347 126.644 32.488C126.297 32.936 126.124 33.6 126.124 34.48C126.124 35.2853 126.297 35.9093 126.644 36.352C126.996 36.7893 127.511 37.008 128.188 37.008C128.615 37.008 128.98 36.9147 129.284 36.728C129.588 36.5413 129.82 36.272 129.98 35.92L132.156 36.544C131.831 37.3333 131.316 37.9467 130.612 38.384C129.913 38.8213 129.148 39.04 128.316 39.04ZM125.452 35.088V33.472H131.18V35.088H125.452ZM136.598 38.8V27.28H141.462C141.574 27.28 141.723 27.2853 141.91 27.296C142.102 27.3013 142.272 27.3173 142.422 27.344C143.11 27.4507 143.672 27.6773 144.11 28.024C144.552 28.3707 144.878 28.808 145.086 29.336C145.294 29.8587 145.398 30.4427 145.398 31.088C145.398 32.0533 145.158 32.88 144.678 33.568C144.198 34.2507 143.446 34.672 142.422 34.832L141.462 34.896H138.774V38.8H136.598ZM143.094 38.8L140.822 34.112L143.062 33.68L145.558 38.8H143.094ZM138.774 32.864H141.366C141.478 32.864 141.6 32.8587 141.734 32.848C141.867 32.8373 141.99 32.816 142.102 32.784C142.395 32.704 142.622 32.5707 142.782 32.384C142.942 32.192 143.051 31.9813 143.11 31.752C143.174 31.5173 143.206 31.296 143.206 31.088C143.206 30.88 143.174 30.6613 143.11 30.432C143.051 30.1973 142.942 29.9867 142.782 29.8C142.622 29.608 142.395 29.472 142.102 29.392C141.99 29.36 141.867 29.3387 141.734 29.328C141.6 29.3173 141.478 29.312 141.366 29.312H138.774V32.864ZM151.012 39.04C150.127 39.04 149.346 38.8507 148.668 38.472C147.996 38.088 147.468 37.5627 147.084 36.896C146.706 36.224 146.516 35.456 146.516 34.592C146.516 33.648 146.703 32.8267 147.076 32.128C147.45 31.4293 147.964 30.888 148.62 30.504C149.276 30.1147 150.031 29.92 150.884 29.92C151.791 29.92 152.562 30.1333 153.196 30.56C153.831 30.9867 154.3 31.5867 154.604 32.36C154.908 33.1333 155.015 34.0427 154.924 35.088H152.772V34.288C152.772 33.408 152.631 32.776 152.348 32.392C152.071 32.0027 151.615 31.808 150.98 31.808C150.239 31.808 149.692 32.0347 149.34 32.488C148.994 32.936 148.82 33.6 148.82 34.48C148.82 35.2853 148.994 35.9093 149.34 36.352C149.692 36.7893 150.207 37.008 150.884 37.008C151.311 37.008 151.676 36.9147 151.98 36.728C152.284 36.5413 152.516 36.272 152.676 35.92L154.852 36.544C154.527 37.3333 154.012 37.9467 153.308 38.384C152.61 38.8213 151.844 39.04 151.012 39.04ZM148.148 35.088V33.472H153.876V35.088H148.148ZM160.416 39.04C159.558 39.04 158.84 38.84 158.264 38.44C157.688 38.04 157.254 37.496 156.96 36.808C156.672 36.12 156.528 35.344 156.528 34.48C156.528 33.616 156.672 32.84 156.96 32.152C157.248 31.464 157.672 30.92 158.232 30.52C158.792 30.12 159.483 29.92 160.304 29.92C161.131 29.92 161.851 30.1173 162.464 30.512C163.078 30.9067 163.552 31.448 163.888 32.136C164.23 32.8187 164.4 33.6 164.4 34.48C164.4 35.344 164.232 36.12 163.896 36.808C163.566 37.496 163.102 38.04 162.504 38.44C161.907 38.84 161.211 39.04 160.416 39.04ZM156.16 42.64V30.16H158.08V36.08H158.352V42.64H156.16ZM160.064 37.104C160.534 37.104 160.918 36.9867 161.216 36.752C161.515 36.5173 161.736 36.2027 161.88 35.808C162.024 35.408 162.096 34.9653 162.096 34.48C162.096 34 162.022 33.5627 161.872 33.168C161.723 32.768 161.491 32.4507 161.176 32.216C160.867 31.976 160.47 31.856 159.984 31.856C159.531 31.856 159.163 31.9653 158.88 32.184C158.603 32.4027 158.4 32.7093 158.272 33.104C158.144 33.4987 158.08 33.9573 158.08 34.48C158.08 35.0027 158.144 35.4613 158.272 35.856C158.4 36.2507 158.608 36.5573 158.896 36.776C159.19 36.9947 159.579 37.104 160.064 37.104ZM168.241 39.04C167.622 39.04 167.097 38.9227 166.665 38.688C166.238 38.448 165.913 38.1307 165.689 37.736C165.47 37.336 165.361 36.896 165.361 36.416C165.361 36.016 165.422 35.6507 165.545 35.32C165.667 34.9893 165.865 34.6987 166.137 34.448C166.414 34.192 166.785 33.9787 167.249 33.808C167.569 33.6907 167.95 33.5867 168.393 33.496C168.835 33.4053 169.337 33.32 169.897 33.24C170.457 33.1547 171.073 33.0613 171.745 32.96L170.961 33.392C170.961 32.88 170.838 32.504 170.593 32.264C170.347 32.024 169.937 31.904 169.361 31.904C169.041 31.904 168.707 31.9813 168.361 32.136C168.014 32.2907 167.771 32.5653 167.633 32.96L165.665 32.336C165.883 31.6213 166.294 31.04 166.897 30.592C167.499 30.144 168.321 29.92 169.361 29.92C170.123 29.92 170.801 30.0373 171.393 30.272C171.985 30.5067 172.433 30.912 172.737 31.488C172.907 31.808 173.009 32.128 173.041 32.448C173.073 32.768 173.089 33.1253 173.089 33.52V38.8H171.185V37.024L171.457 37.392C171.035 37.9733 170.579 38.3947 170.089 38.656C169.603 38.912 168.987 39.04 168.241 39.04ZM168.705 37.328C169.105 37.328 169.441 37.2587 169.713 37.12C169.99 36.976 170.209 36.8133 170.369 36.632C170.534 36.4507 170.646 36.2987 170.705 36.176C170.817 35.9413 170.881 35.6693 170.897 35.36C170.918 35.0453 170.929 34.784 170.929 34.576L171.569 34.736C170.923 34.8427 170.401 34.9333 170.001 35.008C169.601 35.0773 169.278 35.1413 169.033 35.2C168.787 35.2587 168.571 35.3227 168.385 35.392C168.171 35.4773 167.998 35.5707 167.865 35.672C167.737 35.768 167.641 35.8747 167.577 35.992C167.518 36.1093 167.489 36.24 167.489 36.384C167.489 36.5813 167.537 36.752 167.633 36.896C167.734 37.0347 167.875 37.1413 168.057 37.216C168.238 37.2907 168.454 37.328 168.705 37.328ZM175.009 28.96V27.04H177.185V28.96H175.009ZM175.009 38.8V30.16H177.185V38.8H175.009ZM179.263 38.8V30.16H181.183V32.272L180.975 32C181.087 31.7013 181.236 31.4293 181.423 31.184C181.61 30.9387 181.839 30.736 182.111 30.576C182.319 30.448 182.546 30.3493 182.791 30.28C183.036 30.2053 183.29 30.16 183.551 30.144C183.812 30.1227 184.074 30.128 184.335 30.16V32.192C184.095 32.1173 183.815 32.0933 183.495 32.12C183.18 32.1413 182.895 32.2133 182.639 32.336C182.383 32.4533 182.167 32.6107 181.991 32.808C181.815 33 181.682 33.2293 181.591 33.496C181.5 33.7573 181.455 34.0533 181.455 34.384V38.8H179.263Z" fill="#151517"/>
</svg>
