<svg width="20" height="20" viewBox="0 0 20 20" fill="none" xmlns="http://www.w3.org/2000/svg">
<path d="M1.85037 3.89954L4.2276 1.52454C4.51778 1.23436 4.90617 1.07141 5.31688 1.07141C5.7276 1.07141 6.11599 1.23213 6.40617 1.52454L8.96644 4.08034C9.25662 4.37052 9.41956 4.76114 9.41956 5.17186C9.41956 5.5848 9.25885 5.97097 8.96644 6.26338L6.96644 8.26561C7.42206 9.32718 8.0767 10.2917 8.89501 11.1071C9.71421 11.9308 10.6718 12.5803 11.7343 13.0402L13.7343 11.0379C14.0245 10.7478 14.4129 10.5848 14.8236 10.5848C15.0262 10.5841 15.2269 10.6237 15.4139 10.7016C15.601 10.7794 15.7706 10.8937 15.9129 11.0379L18.4754 13.5937C18.7655 13.8839 18.9285 14.2745 18.9285 14.6853C18.9285 15.0982 18.7678 15.4844 18.4754 15.7768L16.1004 18.1518C15.6048 18.6473 14.9218 18.9308 14.2209 18.9308C14.0758 18.9308 13.9352 18.9196 13.7923 18.8951C10.837 18.4085 7.90394 16.8348 5.53563 14.4687C3.16956 12.0982 1.59813 9.16516 1.10706 6.20757C0.966438 5.36829 1.24769 4.50445 1.85037 3.89954ZM2.68965 5.94195C3.12492 8.57364 4.5401 11.1986 6.6718 13.3303C8.80349 15.462 11.4263 16.8772 14.058 17.3125C14.3883 17.3683 14.7276 17.2567 14.9687 17.0178L17.3013 14.6853L14.828 12.2098L12.1539 14.8884L12.1339 14.9085L11.6517 14.7299C10.1898 14.1924 8.86228 13.3435 7.7611 12.2419C6.65993 11.1403 5.81145 9.81251 5.27447 8.35043L5.0959 7.86829L7.79233 5.17409L5.31912 2.69864L2.98653 5.03123C2.74546 5.2723 2.63385 5.61159 2.68965 5.94195Z" fill="white"/>
</svg>
