<svg width="20" height="20" viewBox="0 0 20 20" fill="none" xmlns="http://www.w3.org/2000/svg">
<path d="M1.85037 3.89955L4.2276 1.52455C4.51778 1.23437 4.90617 1.07143 5.31689 1.07143C5.7276 1.07143 6.116 1.23214 6.40617 1.52455L8.96644 4.08036C9.25662 4.37053 9.41957 4.76116 9.41957 5.17187C9.41957 5.58482 9.25885 5.97098 8.96644 6.26339L6.96644 8.26562C7.42206 9.3272 8.0767 10.2917 8.89501 11.1071C9.71421 11.9308 10.6718 12.5804 11.7343 13.0402L13.7343 11.0379C14.0245 10.7478 14.4129 10.5848 14.8236 10.5848C15.0262 10.5841 15.2269 10.6238 15.4139 10.7016C15.601 10.7794 15.7706 10.8937 15.9129 11.0379L18.4754 13.5937C18.7656 13.8839 18.9285 14.2746 18.9285 14.6853C18.9285 15.0982 18.7678 15.4844 18.4754 15.7768L16.1004 18.1518C15.6048 18.6473 14.9218 18.9308 14.2209 18.9308C14.0758 18.9308 13.9352 18.9196 13.7923 18.8951C10.837 18.4085 7.90394 16.8348 5.53564 14.4687C3.16957 12.0982 1.59814 9.16518 1.10707 6.20759C0.966441 5.3683 1.24769 4.50446 1.85037 3.89955ZM2.68966 5.94196C3.12492 8.57366 4.5401 11.1987 6.6718 13.3304C8.8035 15.4621 11.4263 16.8772 14.058 17.3125C14.3883 17.3683 14.7276 17.2567 14.9687 17.0179L17.3013 14.6853L14.8281 12.2098L12.1539 14.8884L12.1339 14.9085L11.6517 14.7299C10.1898 14.1924 8.86228 13.3435 7.76111 12.2419C6.65993 11.1404 5.81145 9.81253 5.27448 8.35045L5.09591 7.8683L7.79233 5.17411L5.31912 2.69866L2.98653 5.03125C2.74546 5.27232 2.63385 5.61161 2.68966 5.94196Z" fill="#CBE9EA"/>
</svg>
