<svg width="24" height="24" viewBox="0 0 24 24" fill="none" xmlns="http://www.w3.org/2000/svg">
<g clip-path="url(#clip0_10_2960)">
<path d="M11.2286 19.4544L21.3589 9.3214C21.4045 9.27587 21.4259 9.21426 21.4205 9.15265L20.7375 1.07944C20.7188 0.870508 20.5554 0.707115 20.3464 0.688365L12.2732 0.00800842C12.2116 0.00265128 12.1473 0.0240797 12.1045 0.0696154L1.97412 10.2C1.93424 10.2402 1.91187 10.2946 1.91187 10.3513C1.91187 10.408 1.93424 10.4624 1.97412 10.5027L10.9259 19.4544C11.0089 19.5402 11.1455 19.5402 11.2286 19.4544ZM12.9054 1.99819L18.9214 2.50712L19.4304 8.52319L11.0759 16.875L4.5509 10.3527L12.9054 1.99819ZM14.5168 6.98649C14.6362 7.10588 14.7779 7.20058 14.9339 7.26518C15.0899 7.32978 15.2571 7.36303 15.426 7.36302C15.5948 7.363 15.762 7.32973 15.918 7.26511C16.074 7.20048 16.2158 7.10576 16.3351 6.98636C16.4545 6.86695 16.5492 6.7252 16.6138 6.5692C16.6784 6.4132 16.7117 6.246 16.7117 6.07716C16.7117 5.90831 16.6784 5.74111 16.6138 5.58512C16.5491 5.42913 16.4544 5.28739 16.335 5.16801C16.2156 5.04862 16.0739 4.95392 15.9179 4.88932C15.7619 4.82472 15.5947 4.79147 15.4258 4.79148C15.257 4.7915 15.0898 4.82477 14.9338 4.88939C14.7778 4.95402 14.636 5.04874 14.5167 5.16814C14.3973 5.28755 14.3026 5.42929 14.238 5.5853C14.1734 5.7413 14.1401 5.9085 14.1401 6.07734C14.1401 6.24619 14.1734 6.41339 14.238 6.56938C14.3027 6.72537 14.3974 6.86711 14.5168 6.98649ZM22.117 12.7446L21.0563 11.6866C21.016 11.6467 20.9616 11.6243 20.9049 11.6243C20.8482 11.6243 20.7939 11.6467 20.7536 11.6866L11.0572 21.3643L4.69287 15.016C4.65259 14.9762 4.5982 14.9538 4.54153 14.9538C4.48485 14.9538 4.43046 14.9762 4.39019 15.016L3.32947 16.0741C3.28959 16.1144 3.26722 16.1687 3.26722 16.2254C3.26722 16.2821 3.28959 16.3365 3.32947 16.3768L9.84376 22.8803L10.9045 23.9384C10.9875 24.0214 11.1241 24.0214 11.2072 23.9384L22.117 13.0473C22.2 12.9643 22.2 12.8277 22.117 12.7446Z" fill="#A8DADC"/>
</g>
<defs>
<clipPath id="clip0_10_2960">
<rect width="24" height="24" fill="white"/>
</clipPath>
</defs>
</svg>
